<?xml version="1.0" standalone="no"?>
<!DOCTYPE svg PUBLIC "-//W3C//DTD SVG 1.1//EN" "http://www.w3.org/Graphics/SVG/1.1/DTD/svg11.dtd" >
<svg xmlns="http://www.w3.org/2000/svg">
<metadata></metadata>
<defs>
<font id="vw_headline_otblack" horiz-adv-x="1187" >
<font-face units-per-em="2048" ascent="1638" descent="-410" />
<missing-glyph horiz-adv-x="555" />
<glyph unicode="&#xfb01;" horiz-adv-x="1175" d="M25 680v217h120v225q0 98 12.5 177t49.5 136.5t104.5 88t175.5 30.5q41 0 89.5 -5t95.5 -15l-37 -240q-41 10 -82 11q-45 0 -72 -21q-12 -10 -21 -23.5t-14.5 -36t-7.5 -57t-2 -88.5v-182h617v-897h-291v680h-326v-680h-291v680h-120zM731 1235q0 37 14.5 68.5t38 55 t55 38t68.5 14.5t69 -14.5t55.5 -38t37.5 -55t14 -68.5t-14 -68.5t-37.5 -55.5t-55.5 -38t-69 -14t-68.5 14t-55 38t-38 55.5t-14.5 68.5z" />
<glyph unicode="&#xfb02;" horiz-adv-x="1169" d="M25 680v217h120v225q0 197 117 310.5t352 113.5q31 0 71 -3t77 -9h291v-1534h-291v1288q-33 8 -62.5 12.5t-62.5 4.5q-98 0 -149.5 -46.5t-51.5 -179.5v-182h203v-217h-203v-680h-291v680h-120z" />
<glyph unicode="&#xfb03;" horiz-adv-x="1792" d="M25 680v217h120v213q0 98 12.5 177t49.5 136.5t104.5 88t175.5 30.5q41 0 89.5 -5t95.5 -15l-37 -240q-41 10 -82 10q-45 0 -72 -20q-12 -10 -21 -23.5t-14.5 -36t-7.5 -57.5t-2 -88v-170h326v225q0 98 12 177t49 136.5t104.5 88t176.5 30.5q41 0 89 -5t95 -15l-37 -240 q-41 10 -82 11q-45 0 -71 -21q-12 -10 -21.5 -23.5t-14.5 -36t-7 -57t-2 -88.5v-182h616v-897h-291v680h-325v-680h-291v680h-326v-680h-291v680h-120zM1348 1235q0 37 14 68.5t37.5 55t55.5 38t69 14.5t68.5 -14.5t55 -38t38 -55t14.5 -68.5t-14.5 -68.5t-38 -55.5t-55 -38 t-68.5 -14t-69 14t-55.5 38t-37.5 55.5t-14 68.5z" />
<glyph unicode="&#xfb04;" horiz-adv-x="1785" d="M25 680v217h120v213q0 98 12.5 177t49.5 136.5t104.5 88t175.5 30.5q41 0 89.5 -5t95.5 -15l-37 -240q-41 10 -82 10q-45 0 -72 -20q-12 -10 -21 -23.5t-14.5 -36t-7.5 -57.5t-2 -88v-170h326v225q0 197 116.5 310.5t352.5 113.5q31 0 70.5 -3t76.5 -9h291v-1534h-291 v1288q-33 8 -62.5 12.5t-62.5 4.5q-98 0 -149 -46.5t-51 -179.5v-182h202v-217h-202v-680h-291v680h-326v-680h-291v680h-120z" />
<glyph horiz-adv-x="0" />
<glyph unicode="&#xd;" horiz-adv-x="555" />
<glyph unicode=" "  horiz-adv-x="555" />
<glyph unicode="&#x09;" horiz-adv-x="555" />
<glyph unicode="&#xa0;" horiz-adv-x="555" />
<glyph unicode="!" horiz-adv-x="692" d="M164 160q0 76 53 129t129 53t129 -53t53 -129t-53 -129.5t-129 -53.5t-129 53.5t-53 129.5zM190 467v985h312v-985h-312z" />
<glyph unicode="&#x22;" horiz-adv-x="931" d="M111 1489h286l-49 -612h-188zM539 1489h286l-49 -612h-186z" />
<glyph unicode="#" horiz-adv-x="1392" d="M82 383v238h231l33 229h-199v237h232l51 365h266l-51 -365h227l52 365h266l-51 -365h182v-237h-215l-33 -229h182v-238h-215l-53 -383h-266l53 383h-227l-53 -383h-267l54 383h-199zM580 621h227l33 229h-228z" />
<glyph unicode="$" d="M119 180l162 205q51 -51 120.5 -95t141.5 -63v359q-82 33 -151.5 72.5t-121 94t-80 126t-28.5 170.5q0 70 26.5 138t76.5 124.5t121 97.5t159 53v187h135v-183q123 -10 209 -51t158 -108l-158 -199q-53 53 -103.5 78.5t-105.5 34.5v-375q82 -35 153.5 -71t124 -86 t82 -117.5t29.5 -163.5q0 -82 -28.5 -154t-80 -129t-123 -95t-157.5 -50v-226h-137v221q-135 10 -240.5 68.5t-183.5 136.5zM440 1063q0 -57 29 -94t84 -66v311q-57 -16 -85 -57t-28 -94zM672 227q55 14 84.5 53t29.5 93q0 55 -28.5 91t-85.5 66v-303z" />
<glyph unicode="%" horiz-adv-x="1820" d="M63 1001q0 104 26 191.5t72 150t111.5 96.5t145.5 34q70 0 129 -27t103 -84t69.5 -146.5t25.5 -214.5q0 -117 -27.5 -206.5t-75.5 -149t-112.5 -90.5t-136.5 -31q-158 0 -244 122t-86 355zM272 1001q0 -133 29.5 -206.5t101.5 -73.5q61 0 97.5 70.5t36.5 209.5 q0 127 -31 202t-98 75q-63 0 -99.5 -78t-36.5 -199zM459 4l745 1507l162 -69l-748 -1510zM1067 442q0 104 25.5 191.5t71.5 150t111.5 96t145.5 33.5q70 0 129.5 -26.5t103.5 -84t69.5 -146.5t25.5 -214q0 -117 -27.5 -207t-76 -149t-112.5 -90t-136 -31q-158 0 -244 122 t-86 355zM1276 442q0 -133 29.5 -206.5t101.5 -73.5q61 0 97 70.5t36 209.5q0 127 -30.5 202t-98.5 75q-63 0 -99 -78t-36 -199z" />
<glyph unicode="&#x26;" horiz-adv-x="1355" d="M86 379q0 104 67.5 200.5t211.5 208.5q-78 88 -115 172t-37 156q0 68 24.5 132.5t71.5 113.5t119 78.5t164 29.5q176 0 280.5 -93t104.5 -261q0 -84 -54.5 -170t-164.5 -172l-27 -20l184 -222l183 160l174 -200l-189 -160l201 -240v-92h-268l-135 164 q-109 -92 -203 -139.5t-199 -47.5q-84 0 -156.5 28t-125 80t-82 127t-29.5 167zM379 391q0 -66 39 -105.5t98 -39.5q57 0 98 30.5t103 83.5l-195 236q-82 -61 -112.5 -105.5t-30.5 -99.5zM479 1116q0 -39 28.5 -84t63.5 -88q55 43 91 87t36 85q0 57 -32.5 84t-75.5 27 q-47 0 -79 -34t-32 -77z" />
<glyph unicode="'" horiz-adv-x="499" d="M111 1489h286l-49 -612h-188z" />
<glyph unicode="(" horiz-adv-x="614" d="M104 469q0 133 14.5 259t45.5 249t78 247t114 253l219 -78q-57 -115 -99 -224.5t-70.5 -222t-43 -229.5t-14.5 -244q0 -264 59.5 -478t163.5 -396l-221 -84q-68 121 -115 237.5t-76.5 233.5t-42 234.5t-12.5 242.5z" />
<glyph unicode=")" horiz-adv-x="614" d="M43 -401q55 111 97 217t72 217.5t45 231.5t15 255q0 258 -61 482.5t-164 390.5l221 84q53 -96 98.5 -197.5t78 -215.5t51 -246t18.5 -288q0 -152 -15.5 -280.5t-46 -249.5t-78.5 -237.5t-112 -241.5z" />
<glyph unicode="*" horiz-adv-x="729" d="M33 1221l88 151l174 -131l-23 211h166l-16 -209l172 129l90 -145l-190 -101l192 -96l-90 -147l-170 125l16 -211h-172l23 213l-166 -129l-92 145l192 98z" />
<glyph unicode="+" horiz-adv-x="1372" d="M86 469v262h469v465h264v-465h467v-262h-467v-469h-264v469h-469z" />
<glyph unicode="," horiz-adv-x="514" d="M27 -254q53 47 84.5 92t31.5 99q0 37 -8 63.5t-18.5 48t-18.5 44t-8 50.5q0 74 49 124t121 50q74 0 125 -50t51 -140q0 -137 -87 -260t-230 -227z" />
<glyph unicode="-" horiz-adv-x="772" d="M82 397v242h606v-242h-606z" />
<glyph unicode="." horiz-adv-x="514" d="M80 139q0 74 52 126t126 52t126 -52t52 -126t-52 -126t-126 -52t-126 52.5t-52 125.5z" />
<glyph unicode="/" horiz-adv-x="1024" d="M0 0l825 1452h201l-829 -1452h-197z" />
<glyph unicode="0" d="M66 721q0 182 37.5 324.5t107.5 239.5t170 148.5t227 51.5t223.5 -55.5t161 -157t97 -242.5t32.5 -311q0 -133 -28.5 -266.5t-93 -241t-171 -175t-260.5 -67.5q-242 0 -372.5 193.5t-130.5 558.5zM381 721q0 -111 12.5 -199t39 -150.5t66.5 -96t95 -33.5q43 0 82 20.5 t68.5 73.5t46 145t16.5 238q0 106 -10.5 197.5t-36 158t-66.5 104.5t-102 38q-115 0 -163 -131.5t-48 -364.5z" />
<glyph unicode="1" d="M166 0v283h270v886h-270v283h586v-1169h270v-283h-856z" />
<glyph unicode="2" d="M86 928q-4 135 31 239.5t102.5 174t162.5 105.5t212 36q123 0 215 -37t153.5 -99.5t92 -142.5t30.5 -166q0 -61 -13 -120.5t-44 -125t-82 -139t-127 -161.5q-53 -59 -104 -118t-97 -106q98 6 201 6h285v-274h-987v90l409 492q70 84 117 147.5t73.5 113.5t38 94t11.5 91 q0 74 -51 125t-135 51q-55 0 -94.5 -21.5t-62 -59.5t-31.5 -88t-5 -107h-301z" />
<glyph unicode="3" d="M82 465h295q-12 -238 207 -238q53 0 90 16.5t60.5 44t34.5 61.5t11 71q0 94 -60.5 142t-193.5 48h-77v256h63q111 0 175.5 43t64.5 140q0 78 -47.5 127t-124.5 49q-92 0 -133 -57.5t-39 -149.5h-299q-2 98 29.5 183t94 149.5t153.5 101.5t208 37q104 0 190 -32t148.5 -89 t97.5 -135t35 -172q0 -100 -48 -180t-138 -127q49 -16 91 -49t72.5 -77t47 -95.5t16.5 -106.5q0 -84 -34 -165t-99.5 -145.5t-161.5 -104.5t-219 -40q-102 0 -194.5 29t-163 88t-111.5 153.5t-41 223.5z" />
<glyph unicode="4" d="M41 299v264l596 889h330v-891h180v-262h-180v-299h-314v299h-612zM330 557h327v250q0 86 2.5 157.5t10.5 141.5q-29 -53 -56.5 -105.5t-56.5 -97.5z" />
<glyph unicode="5" d="M96 86l70 276q76 -61 169 -90.5t189 -29.5q47 0 91 15t79 45t56.5 74t21.5 103q0 47 -21.5 92t-63.5 80t-104.5 56.5t-144.5 21.5q-61 0 -129.5 -11t-126.5 -30l78 764h748v-278h-508l-19 -207q14 0 29 2q12 0 24.5 1t22.5 1q111 0 208 -32t170 -92.5t115 -148.5t42 -198 q0 -106 -39 -201.5t-114 -168.5t-183.5 -116t-249.5 -43q-53 0 -109.5 7.5t-110 22.5t-102.5 35.5t-88 49.5z" />
<glyph unicode="6" d="M66 469q0 123 45 246t147 276q78 119 167 238t171 223h371q-31 -35 -71 -83t-81 -99t-79 -99.5t-64 -85.5q-45 -59 -83 -114.5t-83 -114.5q53 31 93 40t97 9q88 0 165 -30.5t135.5 -87t92 -135.5t33.5 -175q0 -104 -41 -196.5t-113.5 -161t-171 -108.5t-214.5 -40 q-111 0 -205 34t-164 98.5t-108.5 156.5t-38.5 209zM377 459q0 -94 62.5 -157.5t156.5 -63.5q45 0 86 17t69.5 48t46 72t17.5 86t-17.5 84t-46 68.5t-69.5 47t-86 17.5t-85 -17.5t-69.5 -47t-47 -69.5t-17.5 -85z" />
<glyph unicode="7" d="M70 1178v274h1048v-125l-622 -1327h-353l576 1178h-649z" />
<glyph unicode="8" d="M80 422q0 57 17.5 112.5t50 102.5t79.5 83t107 54q-94 41 -146.5 125t-52.5 180q0 84 31 159t89 131t145 89t202 33q94 0 178 -27.5t146.5 -78t98.5 -123t36 -162.5q0 -100 -54.5 -181t-152.5 -128q57 -18 104.5 -55.5t80 -83.5t50 -99t17.5 -107q0 -92 -36 -178 t-103.5 -150.5t-163.5 -103.5t-215 -39q-100 0 -192.5 31t-162 89.5t-111.5 140t-42 186.5zM395 438q0 -80 53.5 -139t145.5 -59q84 0 140.5 56t56.5 142q0 41 -15.5 77t-43 62.5t-63.5 42t-77 15.5q-82 0 -139.5 -57.5t-57.5 -139.5zM420 1067q0 -70 49 -120t127 -50 q74 0 126 48t52 124q0 72 -51 122t-129 50t-126 -51t-48 -123z" />
<glyph unicode="9" d="M68 981q0 111 43 203t116.5 158.5t170 103.5t200.5 37q119 0 216 -36t165 -101.5t104.5 -157.5t36.5 -205q0 -80 -17.5 -154.5t-51 -151.5t-85 -157t-116.5 -170l-258 -350h-373q66 80 138.5 171t125.5 163l199 266q-33 -23 -77 -37t-99 -14q-92 0 -172 30.5t-139.5 88 t-93 136.5t-33.5 177zM371 997q0 -92 61.5 -156.5t159.5 -64.5q45 0 85 17.5t69.5 48t46 71.5t16.5 88q0 45 -17.5 84t-47 69t-69.5 46.5t-85 16.5t-85 -17.5t-69.5 -47.5t-47 -70t-17.5 -85z" />
<glyph unicode=":" horiz-adv-x="700" d="M172 141q0 74 52 125t126 51t126 -51t52 -125t-52 -125t-126 -51t-126 51.5t-52 124.5zM172 723q0 74 52 125t126 51t126 -51t52 -125t-52 -125t-126 -51t-126 51t-52 125z" />
<glyph unicode=";" horiz-adv-x="700" d="M119 -254q53 47 85 92t32 99q0 37 -8.5 63.5t-18.5 48t-18.5 44t-8.5 50.5q0 74 49.5 124t120.5 50q74 0 125 -50t51 -140q0 -137 -87 -260t-230 -227zM172 723q0 74 52 125t126 51t126 -51t52 -125t-52 -125t-126 -51t-126 51t-52 125z" />
<glyph unicode="&#x3c;" horiz-adv-x="1372" d="M82 553v274l1167 498v-287l-803 -340l803 -329v-314z" />
<glyph unicode="=" horiz-adv-x="1372" d="M0 254v262h1372v-262h-1372zM0 684v260h1372v-260h-1372z" />
<glyph unicode="&#x3e;" horiz-adv-x="1372" d="M82 55v299l803 340l-803 330v301l1167 -498v-274z" />
<glyph unicode="?" horiz-adv-x="1155" d="M133 1012q0 100 32 186t91 149.5t145 99.5t195 36q117 0 207 -36t151.5 -98.5t94 -145.5t32.5 -175q0 -158 -86 -269.5t-247 -146.5v-153h-297v360h110q53 0 93 16.5t67 44t40 62.5t13 72q0 39 -15.5 74.5t-41 61.5t-61 41t-74.5 15q-41 0 -76 -15t-60.5 -41t-41 -61.5 t-15.5 -76.5h-256zM426 156q0 74 52 126t126 52t126 -52.5t52 -125.5q0 -74 -52 -126.5t-126 -52.5t-126 52.5t-52 126.5z" />
<glyph unicode="@" horiz-adv-x="2144" d="M88 561q0 205 79 386t215 316.5t317.5 214t387.5 78.5q221 0 398.5 -66.5t301.5 -179t189.5 -261t65.5 -312.5q0 -133 -36 -245.5t-112.5 -194.5t-197.5 -128t-289 -46h-186v92q-53 -55 -119 -86t-158 -31q-86 0 -159.5 32t-129 91.5t-87 144.5t-31.5 193 q0 104 33.5 193.5t92 154t136.5 101t166 36.5t154.5 -35.5t101.5 -93.5v105h270v-670q86 0 144.5 26.5t94 78t52 122t16.5 160.5q0 102 -43 209t-131 193t-222 141t-315 55q-160 0 -298 -61.5t-240.5 -167t-161.5 -245.5t-59 -300q0 -164 58 -306t161.5 -247.5t243 -166 t301.5 -60.5q70 0 142.5 11t142 32.5t134 49.5t117.5 63l96 -187q-133 -92 -294.5 -138t-342.5 -46q-209 0 -391 76.5t-317 210t-213 315.5t-78 393zM817 567q0 -49 14.5 -94t42 -79t66.5 -53t88 -19q47 0 85 19t63.5 52t39 75t13.5 89q0 49 -14.5 92t-42 76t-66.5 52.5 t-88 19.5q-86 0 -143.5 -62.5t-57.5 -167.5z" />
<glyph unicode="A" horiz-adv-x="1517" d="M6 0l572 1452h335l598 -1452h-350l-108 293h-602l-107 -293h-338zM549 567h403l-123 330q-20 55 -41.5 120.5t-39.5 131.5q-18 -68 -39 -132.5t-41 -121.5z" />
<glyph unicode="B" horiz-adv-x="1327" d="M164 0v1452h461q74 0 130 -5t103 -19.5t87 -40t81 -64.5q90 -90 90 -242q0 -100 -42 -168.5t-118 -111.5q121 -23 200 -117t79 -233q0 -195 -125 -318q-63 -63 -169.5 -98t-299.5 -35h-477zM471 256h193q135 0 195.5 48t60.5 140q0 35 -10.5 73t-35.5 63q-37 37 -85 46 t-113 9h-205v-379zM471 887h139q102 0 146 43q23 23 37 53.5t14 71.5q0 25 -8 51.5t-29 46.5q-25 25 -57.5 35t-96.5 10h-145v-311z" />
<glyph unicode="C" horiz-adv-x="1310" d="M78 713q0 162 54 301t152.5 241.5t236.5 162t304 59.5q225 0 389 -76v-342q-70 57 -172 94t-206 37q-92 0 -171 -32t-137.5 -91t-91.5 -147.5t-33 -198.5q0 -92 28 -175t83 -146.5t138 -101.5t194 -38q123 0 213 34t155 85v-324q-76 -39 -182 -62.5t-221 -23.5 q-168 0 -304 59.5t-231.5 161t-146.5 236.5t-51 287z" />
<glyph unicode="D" horiz-adv-x="1425" d="M164 0v1452h411q184 0 325.5 -47t236.5 -141q104 -104 157.5 -227.5t53.5 -288.5q0 -186 -60.5 -317.5t-157.5 -227.5q-111 -111 -255 -157t-318 -46h-393zM475 256h88q104 0 182 25.5t138 83.5q51 51 92 140t41 230q0 113 -34 202t-89 144q-72 72 -160 94.5t-186 22.5 h-72v-942z" />
<glyph unicode="E" horiz-adv-x="1138" d="M164 0v1452h821v-285h-506v-286h496v-283h-496v-309h506v-289h-821z" />
<glyph unicode="F" horiz-adv-x="1099" d="M164 0v1452h821v-285h-506v-286h504v-283h-504v-598h-315z" />
<glyph unicode="G" horiz-adv-x="1622" d="M74 729q0 162 53 302t151.5 241.5t236.5 160t308 58.5q197 0 365 -83t272 -249l-256 -151q-70 96 -166 146t-219 50q-104 0 -184 -37t-133 -101.5t-81 -149.5t-28 -179q0 -98 28 -187t83 -157.5t136 -108.5t189 -40q143 0 245 69.5t138 188.5h-389v270h729v-57 q0 -158 -49 -294t-144 -237.5t-232.5 -160t-315.5 -58.5q-168 0 -304 58.5t-232.5 162t-148.5 242.5t-52 301z" />
<glyph unicode="H" horiz-adv-x="1497" d="M164 0v1452h315v-571h539v571h315v-1452h-315v598h-539v-598h-315z" />
<glyph unicode="I" horiz-adv-x="643" d="M164 0v1452h315v-1452h-315z" />
<glyph unicode="J" horiz-adv-x="978" d="M-8 260l246 162q25 -72 66.5 -115t98.5 -43q23 0 39.5 7.5t26.5 17.5q27 27 35 69.5t8 135.5v958h311v-950q0 -84 -7 -147.5t-22.5 -114t-40 -89t-59.5 -73.5q-53 -53 -130 -79t-175 -26q-68 0 -129 20.5t-112.5 58.5t-91.5 90.5t-64 117.5z" />
<glyph unicode="K" horiz-adv-x="1431" d="M164 0v1452h315v-653l486 653h381l-551 -692l569 -760h-395l-490 676v-676h-315z" />
<glyph unicode="L" horiz-adv-x="1007" d="M164 0v1452h317v-1163h504v-289h-821z" />
<glyph unicode="M" horiz-adv-x="1886" d="M76 0l198 1452h328l252 -700q25 -70 48.5 -147t41.5 -154q23 84 43.5 157.5t42.5 136.5l254 707h322l202 -1452h-307l-88 788q-6 53 -9 118t-5 145q-20 -72 -38 -137.5t-34 -112.5l-287 -801h-209l-282 782q-18 51 -37.5 120t-36.5 138q0 -82 -4 -147.5t-10 -124.5 l-82 -768h-303z" />
<glyph unicode="N" horiz-adv-x="1583" d="M164 0v1452h287l489 -698q55 -80 111.5 -167t91.5 -153q-10 115 -12.5 212t-4.5 212l-4 594h297v-1452h-282l-506 719q-53 76 -100.5 144.5t-94.5 146.5q4 -86 8 -165t7 -165l14 -680h-301z" />
<glyph unicode="O" horiz-adv-x="1665" d="M61 723q0 158 61.5 297t166 242.5t245 164t297.5 60.5q160 0 301.5 -59.5t246 -162t165 -242.5t60.5 -300q0 -158 -61.5 -296t-167 -241.5t-246 -164t-298.5 -60.5q-162 0 -302 59.5t-244.5 162t-164 241.5t-59.5 299zM385 727q0 -96 34 -181t93 -148.5t141 -99.5 t178 -36t178.5 36t142.5 99.5t94 148.5t34 181t-34 180t-94 147.5t-142 99.5t-179 36q-96 0 -178 -36t-141 -99.5t-93 -147.5t-34 -180z" />
<glyph unicode="P" horiz-adv-x="1208" d="M164 0v1452h416q154 0 267.5 -26.5t190.5 -104.5q57 -57 88 -138t31 -179t-30.5 -180.5t-90.5 -141.5q-74 -74 -184.5 -107.5t-245.5 -33.5h-129v-541h-313zM477 807h125q125 0 180 55q25 25 38.5 60.5t13.5 72.5q0 41 -12.5 76t-35.5 57q-27 27 -66.5 40.5t-107.5 13.5 h-135v-375z" />
<glyph unicode="Q" horiz-adv-x="1665" d="M61 723q0 158 61.5 297t166 242.5t245 164t297.5 60.5q160 0 301.5 -59.5t246 -162t165 -242.5t60.5 -300t-62.5 -300t-173.5 -245l209 -260l-285 -55l-137 170q-74 -35 -154.5 -53.5t-169.5 -18.5q-162 0 -302 59.5t-244.5 162t-164 241.5t-59.5 299zM385 727 q0 -96 34 -181t93 -148.5t141 -99.5t178 -36q59 0 125 17l-172 215l285 57l105 -129q51 59 78.5 137t27.5 168q0 96 -34 180t-94 147.5t-142 99.5t-179 36q-96 0 -178 -36t-141 -99.5t-93 -147.5t-34 -180z" />
<glyph unicode="R" horiz-adv-x="1273" d="M164 0v1452h448q131 0 241 -28.5t183 -102.5q63 -63 90 -135t27 -164q0 -80 -25.5 -149.5t-70.5 -123t-107.5 -88t-134.5 -45.5l418 -616h-373l-383 612v-612h-313zM477 817h113q74 0 118 13.5t72 41.5q53 53 54 138q0 16 -6.5 50t-34.5 68q-41 47 -96.5 58.5 t-112.5 11.5h-107v-381z" />
<glyph unicode="S" horiz-adv-x="1142" d="M59 166l199 227q27 -29 56.5 -58.5t64.5 -53t75 -39t85 -15.5q78 0 130 48.5t52 125.5q0 61 -44 102.5t-109.5 77t-142.5 71.5t-142.5 88.5t-109.5 128t-44 190.5q0 98 38 177t102.5 136.5t150.5 88t180 30.5q129 0 239.5 -53.5t182.5 -139.5l-193 -208q-41 66 -99 102.5 t-122 36.5q-76 0 -119 -45t-43 -111q0 -59 44.5 -98t111 -73t144 -67.5t144 -85t110.5 -126t44 -187.5q0 -111 -40.5 -198.5t-111.5 -149t-165 -94.5t-199 -33q-154 0 -267.5 54.5t-201.5 150.5z" />
<glyph unicode="T" horiz-adv-x="987" d="M25 1167v285h938v-281h-312v-1171h-315v1167h-311z" />
<glyph unicode="U" horiz-adv-x="1488" d="M156 537v915h315v-897q0 -92 13.5 -141t54.5 -90q31 -31 83 -57.5t132 -26.5q70 0 117 22.5t75 50.5q41 41 59.5 94.5t18.5 137.5v907h309v-881q0 -145 -39 -257.5t-125 -198.5q-78 -78 -189.5 -114t-238.5 -36q-135 0 -252.5 42t-195.5 120q-61 61 -99 156.5t-38 253.5z " />
<glyph unicode="V" horiz-adv-x="1443" d="M8 1452h348l277 -819q27 -78 47 -149.5t39 -143.5q18 76 38.5 143.5t45.5 139.5l287 829h344l-545 -1452h-344z" />
<glyph unicode="W" horiz-adv-x="2068" d="M39 1452h328l202 -793q18 -74 33.5 -156.5t26.5 -166.5q12 86 27.5 171t31.5 161l172 784h350l179 -797q16 -66 32.5 -148.5t28.5 -174.5q14 88 29.5 173t31.5 146l201 801h318l-424 -1452h-340l-181 801q-12 57 -27.5 137t-31.5 178q-14 -98 -26.5 -174t-26.5 -141 l-174 -801h-336z" />
<glyph unicode="X" horiz-adv-x="1396" d="M2 0l541 762l-488 690h387l273 -436l284 436h375l-495 -684l516 -768h-371l-326 512l-325 -512h-371z" />
<glyph unicode="Y" horiz-adv-x="1292" d="M6 1452h367l278 -553l283 553h354l-485 -790v-662h-316v649z" />
<glyph unicode="Z" horiz-adv-x="1243" d="M2 0l678 1171h-606v281h1122l-678 -1169h670v-283h-1186z" />
<glyph unicode="[" horiz-adv-x="772" d="M174 -451v1903h528v-219h-260v-1456h263v-228h-531z" />
<glyph unicode="\" horiz-adv-x="729" d="M4 1452h264l469 -1489h-264z" />
<glyph unicode="]" horiz-adv-x="772" d="M63 -223h267v1458h-264v217h528v-1901h-531v226z" />
<glyph unicode="^" horiz-adv-x="1499" d="M233 639l418 813h215l400 -813h-285l-225 475l-240 -475h-283z" />
<glyph unicode="_" horiz-adv-x="1028" d="M-20 -231h1069v-263h-1069v263z" />
<glyph unicode="`" horiz-adv-x="1024" d="M252 1282l227 170l291 -336l-168 -112z" />
<glyph unicode="a" horiz-adv-x="1208" d="M76 436q0 106 30.5 195.5t88 155t140.5 102.5t187 37q94 0 169 -38t112 -95v104h289v-897h-289v92q-55 -55 -129 -89t-178 -34q-98 0 -176 35t-132.5 96.5t-83 147.5t-28.5 188zM375 444q0 -49 15.5 -94t44 -78.5t69.5 -53t94 -19.5q51 0 91 19.5t67.5 52t42 74.5 t14.5 89q0 49 -16.5 92t-45 76t-70.5 52.5t-93 19.5q-92 0 -152.5 -62.5t-60.5 -167.5z" />
<glyph unicode="b" horiz-adv-x="1206" d="M117 0v1534h291v-754q55 68 126.5 105t174.5 37q88 0 165.5 -33t134 -93.5t89 -146.5t32.5 -190q0 -115 -34.5 -205t-95 -151.5t-142.5 -94.5t-174 -33q-96 0 -160.5 31t-115.5 90v-96h-291zM395 442q0 -39 12.5 -79.5t39 -74.5t68.5 -56.5t99 -22.5q49 0 89 19.5t67 51 t41 74.5t14 90q0 43 -13 84t-38.5 74t-65.5 52.5t-96 19.5q-98 0 -157.5 -63.5t-59.5 -168.5z" />
<glyph unicode="c" horiz-adv-x="899" d="M76 442q0 90 31.5 177.5t93 155t155 109.5t215.5 42q61 0 129 -12.5t115 -34.5v-263q-31 23 -89 40.5t-112 17.5q-98 0 -167.5 -59.5t-69.5 -163.5q0 -47 16.5 -90.5t47 -75t74.5 -50t99 -18.5q59 0 112.5 18.5t88.5 49.5v-265q-41 -16 -112.5 -32.5t-151.5 -16.5 q-115 0 -203 38t-148.5 102.5t-92 149.5t-31.5 181z" />
<glyph unicode="d" horiz-adv-x="1210" d="M76 446q0 96 30.5 181.5t89 150t142.5 101t188 36.5q86 0 157 -26.5t120 -75.5v719h291v-1532h-291v115q-55 -57 -127 -96t-184 -39q-98 0 -176 36.5t-131.5 99t-81 147.5t-27.5 183zM383 444q0 -55 17.5 -97t47 -71.5t66.5 -44t76 -14.5q49 0 90 19.5t69.5 52.5t45 77 t16.5 91q0 51 -18.5 93t-48 69.5t-67.5 43t-79 15.5q-49 0 -89 -18.5t-67.5 -51.5t-43 -74.5t-15.5 -89.5z" />
<glyph unicode="e" horiz-adv-x="1081" d="M76 442q0 104 33.5 193.5t96 155t148.5 102.5t191 37q102 0 187 -32t145.5 -91t94.5 -146.5t34 -199.5v-33.5t-2 -48.5h-648q4 -86 63.5 -142.5t153.5 -56.5q135 0 224 119l188 -125q-78 -102 -182.5 -154.5t-259.5 -52.5q-90 0 -175 30t-149.5 88t-103.5 147.5 t-39 209.5zM358 551h359q0 33 -12.5 63.5t-35 55t-54 40t-72.5 15.5q-78 0 -127 -49t-58 -125z" />
<glyph unicode="f" horiz-adv-x="665" d="M25 680v217h120v225q0 98 12.5 177t49.5 136.5t104.5 88t175.5 30.5q45 0 87 -4t77 -10v-242q-43 6 -84 7q-35 0 -54 -5.5t-32 -15.5q-12 -10 -21 -23.5t-14.5 -36t-7.5 -57t-2 -88.5v-182h203v-217h-203v-680h-291v680h-120z" />
<glyph unicode="g" horiz-adv-x="1193" d="M76 451q0 100 32.5 187t91 149.5t136.5 98.5t170 36q94 0 168 -31t114 -96v102h289v-813q0 -74 -6 -131t-19.5 -103.5t-37 -84t-56.5 -70.5q-76 -72 -171 -103.5t-218 -31.5q-104 0 -187 26.5t-139.5 74.5t-86 111.5t-29.5 137.5h289q0 -29 14 -53.5t39 -42t55.5 -27.5 t63.5 -10q201 0 200 223v127q-59 -66 -131.5 -93.5t-158.5 -27.5q-109 0 -188 36t-131 97.5t-77.5 141t-25.5 170.5zM375 457q0 -100 57.5 -163t159.5 -63q49 0 87 18.5t63.5 50.5t40 73t14.5 86q0 37 -13.5 74.5t-39 69.5t-66.5 52.5t-96 20.5q-47 0 -85 -17.5t-64.5 -47 t-42 -69.5t-15.5 -85z" />
<glyph unicode="h" horiz-adv-x="1118" d="M117 0v1534h291v-748q20 25 46.5 50.5t62.5 45t80 32t101 12.5q66 0 126.5 -22.5t99.5 -61.5q47 -47 66.5 -110.5t19.5 -143.5v-588h-291v514q0 68 -33 114t-108 46q-39 0 -67 -12.5t-54 -38.5q-29 -29 -39 -72t-10 -102v-449h-291z" />
<glyph unicode="i" horiz-adv-x="536" d="M92 1235q0 37 14.5 68.5t38 55t55 38t68.5 14.5t69 -14.5t55.5 -38t37.5 -55t14 -68.5t-14 -68.5t-37.5 -55.5t-55.5 -38t-69 -14t-68.5 14t-55 38t-38 55.5t-14.5 68.5zM123 0v897h291v-897h-291z" />
<glyph unicode="j" horiz-adv-x="536" d="M92 1235q0 37 14.5 68.5t38 55t55 38t68.5 14.5t69 -14.5t55.5 -38t37.5 -55t14 -68.5t-14 -68.5t-37.5 -55.5t-55.5 -38t-69 -14t-68.5 14t-55 38t-38 55.5t-14.5 68.5zM123 -412v1309h291v-1309h-291z" />
<glyph unicode="k" horiz-adv-x="1069" d="M117 0v1534h291v-1006l282 369h357l-347 -414l371 -483h-381l-282 420v-420h-291z" />
<glyph unicode="l" horiz-adv-x="524" d="M117 0v1534h291v-1534h-291z" />
<glyph unicode="m" horiz-adv-x="1712" d="M117 0v897h291v-133q45 68 108.5 112t173.5 44q90 0 160 -37t123 -131q47 63 120.5 114.5t190.5 51.5q66 0 124 -17.5t101 -59.5t69 -109.5t26 -166.5v-565h-291v496q0 31 -5 62.5t-20.5 56t-42 41t-69.5 16.5q-23 0 -52.5 -8.5t-56.5 -30t-44 -60t-17 -102.5v-471h-291 v496q0 31 -5 62.5t-20.5 56t-42 41t-69.5 16.5q-23 0 -52.5 -8.5t-56.5 -30t-44 -60t-17 -102.5v-471h-291z" />
<glyph unicode="n" horiz-adv-x="1122" d="M117 0v897h291v-119q16 23 40.5 47.5t59.5 45t82 34t108 13.5q86 0 143.5 -27t92.5 -62q43 -43 61.5 -103t18.5 -159v-567h-291v496q0 31 -6 62.5t-21.5 56t-42 41t-67.5 16.5q-23 0 -52.5 -8.5t-58.5 -30t-48 -60t-19 -102.5v-471h-291z" />
<glyph unicode="o" horiz-adv-x="1171" d="M76 451q0 100 37 187t103.5 151.5t160.5 102.5t209 38q111 0 204 -36t161.5 -100.5t106.5 -152.5t38 -192q0 -92 -35 -178.5t-101.5 -154t-165 -108.5t-223.5 -41q-104 0 -194 36t-157.5 100.5t-105.5 152.5t-38 195zM369 444q0 -49 18.5 -90t48 -71.5t68.5 -47t82 -16.5 q49 0 88 18.5t67.5 50t44 73.5t15.5 88q0 98 -62.5 162.5t-154.5 64.5q-49 0 -89 -18.5t-68 -51.5t-43 -75t-15 -87z" />
<glyph unicode="p" horiz-adv-x="1212" d="M117 -412v1309h291v-115q51 68 123.5 104t183.5 36q92 0 170 -37t134 -100.5t87 -149.5t31 -186q0 -86 -30 -171t-86 -153t-140 -109t-193 -41q-98 0 -166.5 32t-113.5 83v-502h-291zM397 434q0 -100 58.5 -166.5t158.5 -66.5q53 0 93.5 20.5t67 54t39.5 76.5t13 86 t-12 85t-38.5 75t-67.5 53.5t-99 20.5q-49 0 -89 -19.5t-67.5 -53.5t-42 -77t-14.5 -88z" />
<glyph unicode="q" horiz-adv-x="1212" d="M76 444q0 98 32.5 184.5t92 150t142.5 100t181 36.5t170 -36.5t111 -94.5v113h291v-1309h-291v504q-47 -53 -114.5 -85t-166.5 -32q-111 0 -194.5 39t-140 104.5t-85 149.5t-28.5 176zM385 440q0 -45 14.5 -87t41 -74.5t66.5 -52t89 -19.5q43 0 82 14.5t69.5 43t49 71.5 t18.5 100q0 45 -14.5 88t-42 77t-67.5 53.5t-91 19.5q-100 0 -157.5 -65.5t-57.5 -168.5z" />
<glyph unicode="r" horiz-adv-x="698" d="M117 0v897h289v-141q39 74 102 121q58 43 159 43h17v-293q-46 30 -115 30h-4q-74 0 -114.5 -62.5t-40.5 -203.5v-391h-293z" />
<glyph unicode="s" horiz-adv-x="880" d="M63 186l246 97q16 -45 50 -74t79 -29q43 0 67.5 16.5t24.5 45.5q0 33 -32.5 52t-80.5 36.5t-104.5 37t-104.5 51.5t-81 82t-33 128q0 61 24.5 115.5t71 95.5t113 64.5t152.5 23.5q127 0 214 -49.5t132 -161.5l-234 -90q-23 53 -56.5 73.5t-68.5 20.5q-29 0 -53 -16.5 t-24 -47.5q0 -35 32.5 -56t80.5 -38.5t105.5 -37t105.5 -51.5t81 -82t33 -128q0 -68 -29 -122t-79 -92t-117.5 -57.5t-147.5 -19.5q-154 0 -240 51.5t-127 161.5z" />
<glyph unicode="t" horiz-adv-x="618" d="M39 680v217h123v320h291v-320h165v-217h-165v-680h-291v680h-123z" />
<glyph unicode="u" horiz-adv-x="1126" d="M109 428v469h290v-461q0 -47 7.5 -88t26 -70.5t51 -47t83.5 -17.5t83 18.5t48.5 49t22.5 68.5t6 79v469h291v-469q0 -115 -18.5 -196.5t-81.5 -143.5q-66 -66 -160 -93.5t-195 -27.5q-106 0 -198.5 32t-163.5 103q-49 49 -70.5 126t-21.5 200z" />
<glyph unicode="v" horiz-adv-x="1105" d="M-2 897h328l172 -438q16 -39 33.5 -94.5t31.5 -108.5q12 53 28.5 106.5t37.5 106.5l159 428h320l-397 -897h-318z" />
<glyph unicode="w" horiz-adv-x="1748" d="M10 897h303l170 -432q16 -37 27.5 -77t24.5 -81q10 41 21 81t22 73l151 436h299l141 -408q16 -47 28.5 -90t23.5 -88q31 100 61 178l160 408h297l-400 -897h-274l-154 440q-10 31 -19 61.5t-18 73.5q-8 -39 -17 -73.5t-19 -63.5l-154 -438h-287z" />
<glyph unicode="x" horiz-adv-x="1105" d="M-2 0l375 459l-344 438h348q51 -72 95 -139.5t85 -136.5q41 72 84 140t92 136h350l-342 -430l367 -467h-346q-53 78 -104.5 155.5t-98.5 155.5q-53 -88 -106.5 -164.5t-106.5 -146.5h-348z" />
<glyph unicode="y" horiz-adv-x="1116" d="M-2 897h332l166 -401q16 -39 37.5 -94.5t37.5 -108.5q16 43 38 98t38 98l166 408h305l-569 -1309h-311l176 394z" />
<glyph unicode="z" horiz-adv-x="972" d="M27 0l440 676h-389v221h860l-446 -678h419v-219h-884z" />
<glyph unicode="{" horiz-adv-x="798" d="M61 428v211q49 0 81 12.5t51.5 43t27.5 80.5t8 124v129q0 106 21.5 186t70 132.5t125 79t185.5 26.5h98v-186q-123 0 -174 -57.5t-51 -155.5v-133q0 -96 -8.5 -161t-32 -110t-65.5 -71.5t-109 -45.5q66 -18 107.5 -46.5t66 -69.5t34 -94.5t9.5 -120.5v-207 q0 -61 8 -104.5t31.5 -70t67.5 -38.5t116 -12v-220h-115q-113 0 -187.5 25t-118.5 76t-61.5 128t-17.5 179v195q0 143 -32.5 209.5t-135.5 66.5z" />
<glyph unicode="|" horiz-adv-x="471" d="M104 -514v2052h263v-2052h-263z" />
<glyph unicode="}" horiz-adv-x="798" d="M61 -266q123 0 174.5 57t51.5 156v133q0 94 8 159.5t31.5 110.5t65.5 72t110 45q-66 18 -108 47t-66.5 70t-33.5 94t-9 121v207q0 61 -8.5 104t-32 69.5t-67.5 39t-116 12.5v219h115q113 0 187.5 -25.5t118.5 -76t61.5 -127t17.5 -179.5v-194q0 -143 33 -210t135 -67 v-211q-49 0 -81 -12t-51 -43t-27.5 -81t-8.5 -124v-129q0 -213 -92 -318.5t-309 -105.5h-99v187z" />
<glyph unicode="~" horiz-adv-x="1499" d="M201 639q20 27 52 57.5t74 56t94 43t111 17.5q63 0 121 -22.5t111 -49t105.5 -49t105.5 -22.5q59 0 114.5 33.5t96.5 87.5l108 -218q-66 -72 -150.5 -117.5t-176.5 -45.5q-59 0 -114.5 22.5t-110 48t-104.5 48t-99 22.5q-55 0 -109.5 -29.5t-114.5 -95.5z" />
<glyph unicode="&#xa1;" horiz-adv-x="651" d="M164 1292q0 76 53 129.5t129 53.5t129 -53.5t53 -129.5t-53 -129t-129 -53t-129 53.5t-53 128.5zM190 0v985h312v-985h-312z" />
<glyph unicode="&#xa2;" d="M178 711q0 94 31 185t92 165t155.5 123t221.5 57v211h145v-217q53 -6 96.5 -19.5t84.5 -27.5v-260q-31 14 -77 30.5t-104 22.5v-543q61 10 106.5 34t78.5 42v-258q-41 -20 -84 -34.5t-101 -22.5v-199h-145v193q-109 4 -200 41.5t-157.5 105.5t-104.5 162t-38 209z M489 717q0 -98 52.5 -169t136.5 -99v522q-84 -25 -136.5 -89.5t-52.5 -164.5z" />
<glyph unicode="&#xa3;" d="M41 227q133 66 183 144t50 155q0 33 -7 65t-17 60h-172v174h100q-29 72 -41 136.5t-12 125.5q0 74 30.5 146t93 128t158 92t224.5 36q184 0 304 -75t189 -224l-284 -127q-33 92 -82 137t-142 45q-72 0 -117.5 -41t-45.5 -112q0 -33 5 -62t15 -59.5t25.5 -66.5t33.5 -81 h271v-172h-217q6 -41 6 -78q0 -72 -24.5 -134t-78.5 -115q49 -2 86 -15.5t71 -29t71 -27.5t86 -12q66 0 112 25.5t91 56.5l141 -240q-59 -37 -146.5 -76t-207.5 -39q-80 0 -136.5 15.5t-104.5 33t-95 32.5t-105 15q-57 0 -109.5 -16t-101.5 -57z" />
<glyph unicode="&#xa4;" horiz-adv-x="1392" d="M12 219l168 170q-45 63 -66.5 145t-21.5 160q0 80 19.5 158t66.5 156l-164 163l195 197l166 -166q53 39 130 64.5t181 25.5q94 0 170 -24.5t139 -65.5l166 168l199 -199l-168 -163q41 -61 64.5 -141.5t23.5 -172.5q0 -88 -24.5 -170t-65.5 -139l168 -170l-199 -195 l-166 168q-63 -39 -139 -62.5t-170 -23.5q-96 0 -173 25t-136 66l-168 -168zM350 698q0 -70 26.5 -132t72 -108t106.5 -73t131 -27t131.5 27t106.5 73t71.5 108.5t26.5 131.5q0 70 -26.5 132.5t-71.5 108.5t-106.5 72.5t-131.5 26.5t-131 -26.5t-106.5 -72.5t-72 -108.5 t-26.5 -132.5z" />
<glyph unicode="&#xa5;" d="M-37 1452h367l268 -534l272 534h355l-486 -774h318v-195h-314v-141h314v-197h-314v-145h-303v145h-340v197h340v141h-340v195h336z" />
<glyph unicode="&#xa6;" horiz-adv-x="471" d="M104 391h263v-784h-263v784zM104 633v784h263v-784h-263z" />
<glyph unicode="&#xa7;" horiz-adv-x="1114" d="M74 45h305q0 -72 44 -116t132 -44q76 0 117 43t41 97q0 51 -45 80.5t-113 55t-147.5 55.5t-147 79t-113 126t-45.5 197q0 55 14.5 106.5t39 95.5t56.5 79t67 57q-51 31 -95.5 93.5t-44.5 150.5q0 72 25.5 139.5t78 119.5t133.5 84t191 32q217 0 336 -96.5t119 -321.5 h-283q0 98 -45 144.5t-125 46.5q-57 0 -104 -38t-47 -110q0 -57 44 -90t109.5 -58.5t141 -53t141.5 -73.5t110 -119t44 -190q0 -104 -44 -187t-137 -142q39 -14 73 -42t58.5 -63t38 -75.5t13.5 -83.5q0 -74 -30 -141.5t-89.5 -120t-147.5 -84t-204 -31.5q-121 0 -208 32.5 t-144.5 87t-85 127t-27.5 152.5zM379 616q0 -37 14.5 -68.5t38 -55t55 -38t68.5 -14.5t68.5 14.5t55 38t38 55.5t14.5 68q0 37 -14.5 69t-38 55.5t-55 38t-68.5 14.5t-68.5 -14.5t-55 -38t-38 -55.5t-14.5 -69z" />
<glyph unicode="&#xa8;" horiz-adv-x="1024" d="M121 1235q0 68 48 116t116 48t116 -48t48 -116t-48 -116t-116 -48t-116 48t-48 116zM575 1235q0 68 48.5 116t115.5 48q68 0 116 -48t48 -116t-48 -116t-116 -48t-116 48t-48 116z" />
<glyph unicode="&#xa9;" horiz-adv-x="1714" d="M90 725q0 160 60.5 299t164 242.5t242.5 164t299 60.5t299 -60.5t242.5 -164t164 -242.5t60.5 -299t-60.5 -299t-164 -242.5t-242.5 -164t-299 -60.5t-299 60.5t-242.5 164t-164 242.5t-60.5 299zM211 725q0 -133 50 -251t138 -206t206 -138t251 -50t251 50t205 138 t138 206t51 251t-51 251t-138 205t-205 138t-251 51t-251 -51t-206 -138t-138 -205t-50 -251zM360 729q0 100 34 192.5t99.5 164t162 114.5t218.5 43q115 0 213.5 -38t184.5 -130l-176 -180q-39 39 -91.5 69.5t-134.5 30.5q-117 0 -187.5 -71.5t-70.5 -194.5 q0 -117 72 -191.5t193 -74.5q74 0 129 26.5t90 67.5l176 -170q-72 -78 -171.5 -124t-226.5 -46q-106 0 -200 34t-164 98.5t-110 160.5t-40 219z" />
<glyph unicode="&#xaa;" horiz-adv-x="1155" d="M117 1090q0 82 23.5 151.5t68.5 120.5t106.5 78.5t139.5 27.5q76 0 136 -24.5t99 -79.5v88h258v-719h-258v64q-39 -45 -96 -67.5t-141 -22.5q-80 0 -142.5 30.5t-105.5 82.5t-65.5 122t-22.5 148zM180 397v242h781v-242h-781zM381 1087q0 -72 41 -125t119 -53 q74 0 113.5 52.5t39.5 117.5q0 70 -44 121t-118 51q-66 0 -108.5 -46t-42.5 -118z" />
<glyph unicode="&#xab;" horiz-adv-x="983" d="M53 457l326 473l162 -115l-238 -348l242 -320l-180 -112zM451 467l315 461l172 -111l-238 -344l240 -321l-176 -109z" />
<glyph unicode="&#xac;" horiz-adv-x="1372" d="M0 467v262h1372v-729h-264v467h-1108z" />
<glyph unicode="&#xad;" horiz-adv-x="772" d="M82 397v242h606v-242h-606z" />
<glyph unicode="&#xae;" horiz-adv-x="1714" d="M176 932q0 137 52.5 258t142.5 211t210.5 142t258.5 52q137 0 258 -52t211 -142t142 -211t52 -258t-52 -258t-142 -211t-211 -142.5t-258 -52.5t-258 52.5t-211 142.5t-142.5 211t-52.5 258zM313 932q0 -109 41 -205t113 -168t168 -112.5t205 -40.5t205 40.5t167.5 112.5 t112.5 168t41 205t-41 205t-112.5 167.5t-168 112.5t-204.5 41q-109 0 -205 -41t-168 -112.5t-113 -168t-41 -204.5zM573 549v784h267q143 0 225 -63.5t82 -169.5q0 -84 -38 -132t-120 -81l187 -338h-242l-150 313h-12v-313h-199zM772 993h39q53 0 84 23.5t31 77.5 q0 37 -23.5 66.5t-89.5 29.5h-41v-197z" />
<glyph unicode="&#xaf;" horiz-adv-x="1024" d="M211 1090v237h602v-237h-602z" />
<glyph unicode="&#xb0;" horiz-adv-x="759" d="M14 1176q0 74 29 139t79 113.5t116.5 76t140.5 27.5t140.5 -27.5t116.5 -76t78.5 -114t28.5 -138.5q0 -74 -28.5 -139.5t-78.5 -114t-116.5 -76t-140.5 -27.5t-140.5 27.5t-116.5 76t-79 114t-29 139.5zM252 1176q0 -53 37 -90t90 -37t90 36.5t37 90.5q0 53 -37 90 t-90 37t-90 -37t-37 -90z" />
<glyph unicode="&#xb1;" horiz-adv-x="1372" d="M86 0v262h1200v-262h-1200zM86 764v260h469v428h264v-428h467v-260h-467v-430h-264v430h-469z" />
<glyph unicode="&#xb2;" horiz-adv-x="772" d="M66 1141q0 154 81.5 239.5t229.5 85.5q76 0 133 -22.5t95 -59t56.5 -84t18.5 -98.5q0 -55 -20.5 -104t-54.5 -95.5t-79 -89.5t-96 -86q10 2 28.5 3t39.5 1h194v-188h-610v90l141.5 141.5t120.5 127t85 108.5t32 84q0 41 -23.5 63.5t-66.5 22.5q-92 0 -92 -121v-18h-213z " />
<glyph unicode="&#xb3;" horiz-adv-x="759" d="M70 907h206q0 -59 24 -84.5t73 -25.5q47 0 69.5 25.5t22.5 60.5q0 45 -32 70.5t-126 25.5v149q82 0 110.5 24t28.5 62q0 35 -20 55.5t-55 20.5q-78 0 -78 -98h-207q4 123 79 198.5t212 75.5q127 0 206 -67.5t79 -177.5q0 -100 -95 -158q53 -18 86 -70.5t33 -105.5 t-21.5 -100.5t-61.5 -83t-98.5 -57t-131.5 -21.5q-125 0 -212 70.5t-91 211.5z" />
<glyph unicode="&#xb4;" horiz-adv-x="1024" d="M252 1116l289 336l229 -170l-352 -278z" />
<glyph unicode="&#xb5;" horiz-adv-x="1144" d="M117 -412v1309h291v-424q0 -49 8 -94t26.5 -81t51 -56.5t81.5 -20.5t81 24.5t49.5 62.5t24.5 84t7 91v414h291v-897h-283v92q-10 -18 -24 -39.5t-34.5 -40t-49.5 -31t-66 -12.5t-63.5 10.5t-46 25.5t-32.5 33.5t-21 33.5v-484h-291z" />
<glyph unicode="&#xb6;" horiz-adv-x="1372" d="M162 1018q0 90 33.5 169t93 138t138.5 93t169 34h633v-197h-121v-1599h-215v1599h-158v-1599h-215v934q-84 16 -149.5 56t-112.5 97.5t-71.5 128t-24.5 146.5z" />
<glyph unicode="&#xb7;" horiz-adv-x="514" d="M66 594q0 78 54 132t132 54t132 -54t54 -132t-54 -132t-132 -54t-132 54t-54 132z" />
<glyph unicode="&#xb8;" horiz-adv-x="1024" d="M289 -358l217 282l227 -104l-280 -305z" />
<glyph unicode="&#xb9;" horiz-adv-x="540" d="M53 1262v190h367v-809h-219v619h-148z" />
<glyph unicode="&#xba;" horiz-adv-x="1175" d="M154 1090q0 80 30.5 149.5t85 121.5t129 82t164.5 30q88 0 165 -29t133.5 -81t88 -123t31.5 -153q0 -74 -28.5 -142t-83 -122.5t-132.5 -87.5t-178 -33q-84 0 -157.5 29t-129 80t-87 123t-31.5 156zM180 397v242h781v-242h-781zM414 1083q0 -72 46 -115.5t107 -43.5 q68 0 110 50t42 113q0 70 -44 116t-110 46q-72 0 -111.5 -50t-39.5 -116z" />
<glyph unicode="&#xbb;" horiz-adv-x="983" d="M37 158l244 350l-240 317l172 107l313 -424l-311 -465zM432 829l176 109l318 -430l-322 -467l-168 117l238 350z" />
<glyph unicode="&#xbc;" horiz-adv-x="1662" d="M111 1262v190h366v-809h-219v619h-147zM301 8l752 1503l139 -71l-752 -1506zM885 147v179l293 483h252v-481h100v-181h-100v-147h-203v147h-342zM1079 326h148v172v38.5t2 38.5z" />
<glyph unicode="&#xbd;" horiz-adv-x="1683" d="M111 1262v190h366v-809h-219v619h-147zM301 8l752 1503l139 -71l-752 -1506zM924 498q0 154 81.5 239.5t229.5 85.5q76 0 133 -22.5t95 -59t56.5 -84t18.5 -98.5q0 -55 -20.5 -104t-54 -95.5t-79 -89.5t-96.5 -86q10 2 28.5 3t39.5 1h194v-188h-610v90l141.5 141.5 t120.5 127t85 108.5t32 84q0 41 -23.5 63.5t-66.5 22.5q-92 0 -92 -121v-18h-213z" />
<glyph unicode="&#xbe;" horiz-adv-x="1880" d="M119 907h207q0 -59 23.5 -84.5t72.5 -25.5q47 0 69.5 25.5t22.5 60.5q0 45 -31.5 70.5t-126.5 25.5v149q82 0 111 24t29 62q0 35 -20.5 55.5t-55.5 20.5q-78 0 -78 -98h-207q4 123 79 198.5t212 75.5q127 0 206 -67.5t79 -177.5q0 -100 -95 -158q53 -18 86 -70.5 t33 -105.5t-21.5 -100.5t-61.5 -83t-98 -57t-132 -21.5q-125 0 -212 70.5t-91 211.5zM518 8l752 1503l139 -71l-752 -1506zM1102 147v179l293 483h252v-481h100v-181h-100v-147h-203v147h-342zM1296 326h148v172v38.5t2 38.5z" />
<glyph unicode="&#xbf;" horiz-adv-x="1155" d="M115 426q0 158 86 269.5t248 146.5v153h296v-360h-110q-53 0 -93 -16.5t-66.5 -44t-40 -62.5t-13.5 -72q0 -80 56.5 -136t135.5 -56q39 0 75 15.5t61.5 41t41 61t15.5 76.5h256q0 -100 -32 -186t-91 -149.5t-145 -99.5t-195 -36q-117 0 -207 36t-151.5 98.5t-94 145.5 t-32.5 175zM414 1298q0 74 52 126.5t126 52.5t126 -52.5t52 -126.5t-52 -126t-126 -52t-126 52.5t-52 125.5z" />
<glyph unicode="&#xc0;" horiz-adv-x="1517" d="M6 0l572 1452h335l598 -1452h-350l-108 293h-602l-107 -293h-338zM471 1753l256 154l269 -271l-148 -110zM549 567h403l-123 330q-20 55 -41.5 120.5t-39.5 131.5q-18 -68 -39 -132.5t-41 -121.5z" />
<glyph unicode="&#xc1;" horiz-adv-x="1517" d="M6 0l572 1452h335l598 -1452h-350l-108 293h-602l-107 -293h-338zM524 1632l266 269l259 -154l-377 -227zM549 567h403l-123 330q-20 55 -41.5 120.5t-39.5 131.5q-18 -68 -39 -132.5t-41 -121.5z" />
<glyph unicode="&#xc2;" horiz-adv-x="1517" d="M6 0l572 1452h335l598 -1452h-350l-108 293h-602l-107 -293h-338zM377 1696l387 153l385 -145l-86 -184l-297 112l-305 -112zM549 567h403l-123 330q-20 55 -41.5 120.5t-39.5 131.5q-18 -68 -39 -132.5t-41 -121.5z" />
<glyph unicode="&#xc3;" horiz-adv-x="1517" d="M6 0l572 1452h335l598 -1452h-350l-108 293h-602l-107 -293h-338zM333 1548q0 61 18.5 115.5t52.5 94.5t80 62.5t101 22.5t96 -14t76 -32.5t69 -33t75 -14.5q35 0 56 23.5t21 60.5h209q0 -68 -20.5 -123t-56 -93t-85 -59.5t-104.5 -21.5q-49 0 -90 15.5t-79 34 t-73.5 33.5t-72.5 15q-29 0 -49.5 -27.5t-20.5 -58.5h-203zM549 567h403l-123 330q-20 55 -41.5 120.5t-39.5 131.5q-18 -68 -39 -132.5t-41 -121.5z" />
<glyph unicode="&#xc4;" horiz-adv-x="1517" d="M6 0l572 1452h335l598 -1452h-350l-108 293h-602l-107 -293h-338zM356 1686q0 68 48 115.5t116 47.5t116 -48t48 -115q0 -68 -48 -116t-116 -48t-116 48t-48 116zM549 567h403l-123 330q-20 55 -41.5 120.5t-39.5 131.5q-18 -68 -39 -132.5t-41 -121.5zM811 1686 q0 68 48 115.5t116 47.5t116 -48t48 -115q0 -68 -48 -116t-116 -48t-116 48t-48 116z" />
<glyph unicode="&#xc5;" horiz-adv-x="1517" d="M6 0l561 1427q-35 33 -54 77t-19 98q0 51 19 96t54 78.5t80 52t98 18.5q51 0 97.5 -18.5t81 -52t54 -78.5t19.5 -96q0 -53 -19.5 -97.5t-53.5 -79.5l587 -1425h-350l-108 293h-602l-107 -293h-338zM549 567h403l-123 330q-20 55 -41.5 120.5t-39.5 131.5 q-18 -68 -39 -132.5t-41 -121.5zM647 1602q0 -41 28.5 -70t69.5 -29t70 29t29 70t-29 69.5t-70 28.5t-69.5 -29t-28.5 -69z" />
<glyph unicode="&#xc6;" horiz-adv-x="1886" d="M4 0l623 1452h848l88 -285h-469l80 -286h450l84 -283h-451l91 -309h471l88 -289h-807l-78 281h-569l-111 -281h-338zM563 555h383l-98 342q-18 63 -35.5 119.5t-30.5 120.5q-23 -66 -42 -120t-44 -120z" />
<glyph unicode="&#xc7;" horiz-adv-x="1310" d="M78 713q0 162 54 301t152.5 241.5t236.5 162t304 59.5q225 0 389 -76v-342q-70 57 -172 94t-206 37q-92 0 -171 -32t-137.5 -91t-91.5 -147.5t-33 -198.5q0 -92 28 -175t83 -146.5t138 -101.5t194 -38q123 0 213 34t155 85v-324q-76 -39 -182 -62.5t-221 -23.5 q-168 0 -304 59.5t-231.5 161t-146.5 236.5t-51 287zM465 -358l217 282l228 -104l-281 -305z" />
<glyph unicode="&#xc8;" horiz-adv-x="1138" d="M164 0v1452h821v-285h-506v-286h496v-283h-496v-309h506v-289h-821zM305 1753l256 154l269 -271l-148 -110z" />
<glyph unicode="&#xc9;" horiz-adv-x="1138" d="M164 0v1452h821v-285h-506v-286h496v-283h-496v-309h506v-289h-821zM467 1632l266 269l259 -154l-377 -227z" />
<glyph unicode="&#xca;" horiz-adv-x="1138" d="M164 0v1452h821v-285h-506v-286h496v-283h-496v-309h506v-289h-821zM217 1696l387 153l385 -145l-86 -184l-297 112l-305 -112z" />
<glyph unicode="&#xcb;" horiz-adv-x="1138" d="M164 0v1452h821v-285h-506v-286h496v-283h-496v-309h506v-289h-821zM196 1686q0 68 48 115.5t116 47.5t116 -48t48 -115q0 -68 -48 -116t-116 -48t-116 48t-48 116zM651 1686q0 68 48 115.5t116 47.5t116 -48t48 -115q0 -68 -48 -116t-116 -48t-116 48t-48 116z" />
<glyph unicode="&#xcc;" horiz-adv-x="643" d="M8 1753l256 154l269 -271l-148 -110zM164 0v1452h315v-1452h-315z" />
<glyph unicode="&#xcd;" horiz-adv-x="643" d="M129 1632l266 269l259 -154l-377 -227zM164 0v1452h315v-1452h-315z" />
<glyph unicode="&#xce;" horiz-adv-x="643" d="M-60 1696l387 153l385 -145l-86 -184l-297 112l-305 -112zM164 0v1452h315v-1452h-315z" />
<glyph unicode="&#xcf;" horiz-adv-x="643" d="M-68 1686q0 68 48 115.5t116 47.5t116 -48t48 -115q0 -68 -48 -116t-116 -48t-116 48t-48 116zM164 0v1452h315v-1452h-315zM387 1686q0 68 48 115.5t116 47.5t116 -48t48 -115q0 -68 -48 -116t-116 -48t-116 48t-48 116z" />
<glyph unicode="&#xd0;" horiz-adv-x="1435" d="M55 614v242h119v596h412q184 0 325.5 -47t235.5 -141q104 -104 157.5 -227.5t53.5 -288.5q0 -186 -60.5 -317.5t-156.5 -227.5q-111 -111 -255.5 -157t-318.5 -46h-393v614h-119zM485 256h88q104 0 182.5 25.5t137.5 83.5q51 51 92 140t41 230q0 113 -34 202t-89 144 q-72 72 -160 94.5t-186 22.5h-72v-342h140v-242h-140v-358z" />
<glyph unicode="&#xd1;" horiz-adv-x="1583" d="M164 0v1452h287l489 -698q55 -80 111.5 -167t91.5 -153q-10 115 -12.5 212t-4.5 212l-4 594h297v-1452h-282l-506 719q-53 76 -100.5 144.5t-94.5 146.5q4 -86 8.5 -165t6.5 -165l14 -680h-301zM401 1548q0 61 18.5 115.5t52.5 94.5t80 62.5t101 22.5t96 -14t76 -32.5 t69 -33t75 -14.5q35 0 56 23.5t21 60.5h209q0 -68 -20.5 -123t-56 -93t-85 -59.5t-104.5 -21.5q-49 0 -90 15.5t-79 34t-73.5 33.5t-72.5 15q-29 0 -49.5 -27.5t-20.5 -58.5h-203z" />
<glyph unicode="&#xd2;" horiz-adv-x="1665" d="M61 723q0 158 61.5 297t166 242.5t245 164t297.5 60.5q160 0 301.5 -59.5t246 -162t165 -242.5t60.5 -300q0 -158 -61.5 -296t-167 -241.5t-246 -164t-298.5 -60.5q-162 0 -302 59.5t-244.5 162t-164 241.5t-59.5 299zM385 727q0 -96 34 -181t93 -148.5t141 -99.5 t178 -36t178.5 36t142.5 99.5t94 148.5t34 181t-34 180t-94 147.5t-142 99.5t-179 36q-96 0 -178 -36t-141 -99.5t-93 -147.5t-34 -180zM542 1753l256 154l269 -271l-148 -110z" />
<glyph unicode="&#xd3;" horiz-adv-x="1665" d="M61 723q0 158 61.5 297t166 242.5t245 164t297.5 60.5q160 0 301.5 -59.5t246 -162t165 -242.5t60.5 -300q0 -158 -61.5 -296t-167 -241.5t-246 -164t-298.5 -60.5q-162 0 -302 59.5t-244.5 162t-164 241.5t-59.5 299zM385 727q0 -96 34 -181t93 -148.5t141 -99.5 t178 -36t178.5 36t142.5 99.5t94 148.5t34 181t-34 180t-94 147.5t-142 99.5t-179 36q-96 0 -178 -36t-141 -99.5t-93 -147.5t-34 -180zM602 1632l266 269l259 -154l-377 -227z" />
<glyph unicode="&#xd4;" horiz-adv-x="1665" d="M61 723q0 158 61.5 297t166 242.5t245 164t297.5 60.5q160 0 301.5 -59.5t246 -162t165 -242.5t60.5 -300q0 -158 -61.5 -296t-167 -241.5t-246 -164t-298.5 -60.5q-162 0 -302 59.5t-244.5 162t-164 241.5t-59.5 299zM385 727q0 -96 34 -181t93 -148.5t141 -99.5 t178 -36t178.5 36t142.5 99.5t94 148.5t34 181t-34 180t-94 147.5t-142 99.5t-179 36q-96 0 -178 -36t-141 -99.5t-93 -147.5t-34 -180zM452 1696l387 153l385 -145l-86 -184l-297 112l-305 -112z" />
<glyph unicode="&#xd5;" horiz-adv-x="1665" d="M61 723q0 158 61.5 297t166 242.5t245 164t297.5 60.5q160 0 301.5 -59.5t246 -162t165 -242.5t60.5 -300q0 -158 -61.5 -296t-167 -241.5t-246 -164t-298.5 -60.5q-162 0 -302 59.5t-244.5 162t-164 241.5t-59.5 299zM385 727q0 -96 34 -181t93 -148.5t141 -99.5 t178 -36t178.5 36t142.5 99.5t94 148.5t34 181t-34 180t-94 147.5t-142 99.5t-179 36q-96 0 -178 -36t-141 -99.5t-93 -147.5t-34 -180zM403 1548q0 61 18.5 115.5t52.5 94.5t80 62.5t101 22.5t96 -14t76 -32.5t69 -33t75 -14.5q35 0 56 23.5t21 60.5h209q0 -68 -20.5 -123 t-56 -93t-85 -59.5t-104.5 -21.5q-49 0 -90 15.5t-79 34t-73.5 33.5t-72.5 15q-29 0 -49.5 -27.5t-20.5 -58.5h-203z" />
<glyph unicode="&#xd6;" horiz-adv-x="1665" d="M61 723q0 158 61.5 297t166 242.5t245 164t297.5 60.5q160 0 301.5 -59.5t246 -162t165 -242.5t60.5 -300q0 -158 -61.5 -296t-167 -241.5t-246 -164t-298.5 -60.5q-162 0 -302 59.5t-244.5 162t-164 241.5t-59.5 299zM385 727q0 -96 34 -181t93 -148.5t141 -99.5 t178 -36t178.5 36t142.5 99.5t94 148.5t34 181t-34 180t-94 147.5t-142 99.5t-179 36q-96 0 -178 -36t-141 -99.5t-93 -147.5t-34 -180zM442 1686q0 68 48 115.5t116 47.5t116 -48t48 -115q0 -68 -48 -116t-116 -48t-116 48t-48 116zM897 1686q0 68 48 115.5t116 47.5 t116 -48t48 -115q0 -68 -48 -116t-116 -48t-116 48t-48 116z" />
<glyph unicode="&#xd7;" horiz-adv-x="1372" d="M125 225l375 373l-375 377l186 180l373 -371l377 371l184 -180l-373 -377l373 -373l-184 -186l-377 375l-373 -375z" />
<glyph unicode="&#xd8;" horiz-adv-x="1683" d="M25 55l198 199q-74 96 -115.5 215t-41.5 254q0 158 61 297t165.5 242.5t245 164t298.5 60.5q131 0 249.5 -40t217.5 -114l174 174l108 -108l-168 -168q88 -98 139.5 -228.5t51.5 -279.5q0 -158 -61.5 -296t-167 -241.5t-246 -164t-297.5 -60.5q-145 0 -273.5 48 t-232.5 134l-197 -196zM381 727q0 -137 65 -250l646 645q-53 37 -118 57.5t-138 20.5q-98 0 -181.5 -37t-144.5 -101.5t-95 -150.5t-34 -184zM545 358q57 -49 131 -77.5t160 -28.5q98 0 182 37t145.5 101.5t95 151.5t33.5 185q0 82 -23.5 155.5t-66.5 133.5z" />
<glyph unicode="&#xd9;" horiz-adv-x="1488" d="M156 537v915h315v-897q0 -92 13.5 -141t54.5 -90q31 -31 83 -57.5t132 -26.5q70 0 117 22.5t75 50.5q41 41 59.5 94.5t18.5 137.5v907h309v-881q0 -145 -39 -257.5t-125 -198.5q-78 -78 -189.5 -114t-238.5 -36q-135 0 -252.5 42t-195.5 120q-61 61 -99 156.5t-38 253.5z M395 1753l256 154l269 -271l-148 -110z" />
<glyph unicode="&#xda;" horiz-adv-x="1488" d="M156 537v915h315v-897q0 -92 13.5 -141t54.5 -90q31 -31 83 -57.5t132 -26.5q70 0 117 22.5t75 50.5q41 41 59.5 94.5t18.5 137.5v907h309v-881q0 -145 -39 -257.5t-125 -198.5q-78 -78 -189.5 -114t-238.5 -36q-135 0 -252.5 42t-195.5 120q-61 61 -99 156.5t-38 253.5z M540 1632l266 269l259 -154l-377 -227z" />
<glyph unicode="&#xdb;" horiz-adv-x="1488" d="M156 537v915h315v-897q0 -92 13.5 -141t54.5 -90q31 -31 83 -57.5t132 -26.5q70 0 117 22.5t75 50.5q41 41 59.5 94.5t18.5 137.5v907h309v-881q0 -145 -39 -257.5t-125 -198.5q-78 -78 -189.5 -114t-238.5 -36q-135 0 -252.5 42t-195.5 120q-61 61 -99 156.5t-38 253.5z M368 1696l387 153l385 -145l-86 -184l-297 112l-305 -112z" />
<glyph unicode="&#xdc;" horiz-adv-x="1488" d="M156 537v915h315v-897q0 -92 13.5 -141t54.5 -90q31 -31 83 -57.5t132 -26.5q70 0 117 22.5t75 50.5q41 41 59.5 94.5t18.5 137.5v907h309v-881q0 -145 -39 -257.5t-125 -198.5q-78 -78 -189.5 -114t-238.5 -36q-135 0 -252.5 42t-195.5 120q-61 61 -99 156.5t-38 253.5z M354 1686q0 68 48 115.5t116 47.5t116 -48t48 -115q0 -68 -48 -116t-116 -48t-116 48t-48 116zM809 1686q0 68 48 115.5t116 47.5t116 -48t48 -115q0 -68 -48 -116t-116 -48t-116 48t-48 116z" />
<glyph unicode="&#xdd;" horiz-adv-x="1292" d="M6 1452h367l278 -553l283 553h354l-485 -790v-662h-316v649zM452 1632l266 269l259 -154l-377 -227z" />
<glyph unicode="&#xde;" horiz-adv-x="1218" d="M174 0v1452h313v-270h103q154 0 267.5 -27t191.5 -104q57 -57 87.5 -138.5t30.5 -179.5t-30.5 -180t-89.5 -141q-74 -74 -184.5 -108t-246.5 -34h-129v-270h-313zM487 537h125q125 0 181 55q25 25 38 60.5t13 72.5q0 41 -12.5 76t-34.5 57q-27 27 -67 40t-107 13h-136 v-374z" />
<glyph unicode="&#xdf;" horiz-adv-x="1128" d="M117 0v1145q0 84 25.5 158.5t77.5 130t134 88t197 32.5q197 0 303.5 -101t106.5 -261q0 -76 -21.5 -126t-47.5 -88t-47.5 -73t-21.5 -80q0 -29 19.5 -54.5t49.5 -53t64.5 -59t64.5 -71.5t49.5 -92.5t19.5 -119.5q0 -96 -32 -169t-84 -122t-120 -73.5t-139 -24.5 q-80 0 -138.5 18.5t-105.5 52.5l107 219q43 -49 112 -49q43 0 74 30t31 87q0 43 -20.5 75t-50.5 59.5t-65.5 55t-65.5 64.5t-50.5 84t-20.5 117q0 72 21.5 121t48 89t48.5 77.5t22 89.5q0 51 -33 92t-94 41q-59 0 -93 -42t-34 -110v-1157h-291z" />
<glyph unicode="&#xe0;" horiz-adv-x="1208" d="M76 436q0 106 30.5 195.5t88 155t140.5 102.5t187 37q94 0 169 -38t112 -95v104h289v-897h-289v92q-55 -55 -129 -89t-178 -34q-98 0 -176 35t-132.5 96.5t-83 147.5t-28.5 188zM248 1282l227 170l291 -336l-168 -112zM375 444q0 -49 15.5 -94t44 -78.5t69.5 -53 t94 -19.5q51 0 91 19.5t67.5 52t42 74.5t14.5 89q0 49 -16.5 92t-45 76t-70.5 52.5t-93 19.5q-92 0 -152.5 -62.5t-60.5 -167.5z" />
<glyph unicode="&#xe1;" horiz-adv-x="1208" d="M76 436q0 106 30.5 195.5t88 155t140.5 102.5t187 37q94 0 169 -38t112 -95v104h289v-897h-289v92q-55 -55 -129 -89t-178 -34q-98 0 -176 35t-132.5 96.5t-83 147.5t-28.5 188zM375 444q0 -49 15.5 -94t44 -78.5t69.5 -53t94 -19.5q51 0 91 19.5t67.5 52t42 74.5 t14.5 89q0 49 -16.5 92t-45 76t-70.5 52.5t-93 19.5q-92 0 -152.5 -62.5t-60.5 -167.5zM475 1116l289 336l229 -170l-352 -278z" />
<glyph unicode="&#xe2;" horiz-adv-x="1208" d="M76 436q0 106 30.5 195.5t88 155t140.5 102.5t187 37q94 0 169 -38t112 -95v104h289v-897h-289v92q-55 -55 -129 -89t-178 -34q-98 0 -176 35t-132.5 96.5t-83 147.5t-28.5 188zM234 1188l399 278l373 -274l-127 -170l-258 174l-250 -176zM375 444q0 -49 15.5 -94 t44 -78.5t69.5 -53t94 -19.5q51 0 91 19.5t67.5 52t42 74.5t14.5 89q0 49 -16.5 92t-45 76t-70.5 52.5t-93 19.5q-92 0 -152.5 -62.5t-60.5 -167.5z" />
<glyph unicode="&#xe3;" horiz-adv-x="1208" d="M76 436q0 106 30.5 195.5t88 155t140.5 102.5t187 37q94 0 169 -38t112 -95v104h289v-897h-289v92q-55 -55 -129 -89t-178 -34q-98 0 -176 35t-132.5 96.5t-83 147.5t-28.5 188zM186 1067q0 61 18.5 115.5t52 94.5t80 62.5t101.5 22.5t96 -14.5t76 -33t68.5 -32.5 t74.5 -14q35 0 56.5 23.5t21.5 60.5h209q0 -68 -20.5 -123t-56.5 -93t-85 -59.5t-104 -21.5q-49 0 -90 15t-79 33.5t-74 34t-73 15.5q-29 0 -49 -27.5t-20 -58.5h-203zM375 444q0 -49 15.5 -94t44 -78.5t69.5 -53t94 -19.5q51 0 91 19.5t67.5 52t42 74.5t14.5 89 q0 49 -16.5 92t-45 76t-70.5 52.5t-93 19.5q-92 0 -152.5 -62.5t-60.5 -167.5z" />
<glyph unicode="&#xe4;" horiz-adv-x="1208" d="M76 436q0 106 30.5 195.5t88 155t140.5 102.5t187 37q94 0 169 -38t112 -95v104h289v-897h-289v92q-55 -55 -129 -89t-178 -34q-98 0 -176 35t-132.5 96.5t-83 147.5t-28.5 188zM240 1235q0 68 48 116t116 48t116 -48t48 -116t-48 -116t-116 -48t-116 48t-48 116z M375 444q0 -49 15.5 -94t44 -78.5t69.5 -53t94 -19.5q51 0 91 19.5t67.5 52t42 74.5t14.5 89q0 49 -16.5 92t-45 76t-70.5 52.5t-93 19.5q-92 0 -152.5 -62.5t-60.5 -167.5zM694 1235q0 68 48.5 116t115.5 48q68 0 116 -48t48 -116t-48 -116t-116 -48t-116 48t-48 116z" />
<glyph unicode="&#xe5;" horiz-adv-x="1208" d="M76 436q0 106 30.5 195.5t88 155t140.5 102.5t187 37q94 0 169 -38t112 -95v104h289v-897h-289v92q-55 -55 -129 -89t-178 -34q-98 0 -176 35t-132.5 96.5t-83 147.5t-28.5 188zM375 444q0 -49 15.5 -94t44 -78.5t69.5 -53t94 -19.5q51 0 91 19.5t67.5 52t42 74.5 t14.5 89q0 49 -16.5 92t-45 76t-70.5 52.5t-93 19.5q-92 0 -152.5 -62.5t-60.5 -167.5zM379 1264q0 51 19.5 96t54.5 79t80 52t98 18q51 0 97 -18t81 -52t54.5 -79t19.5 -96q0 -53 -19.5 -97.5t-54.5 -78t-81 -52t-97 -18.5q-53 0 -98 18.5t-80 52t-54.5 77.5t-19.5 98z M533 1264q0 -41 28.5 -70t69.5 -29t69.5 29t28.5 70t-28.5 69.5t-69.5 28.5t-69.5 -28.5t-28.5 -69.5z" />
<glyph unicode="&#xe6;" horiz-adv-x="1669" d="M74 266q0 57 19.5 109.5t67.5 92.5t128 63.5t200 23.5h205q-12 66 -66.5 114t-148.5 48q-55 0 -104 -20.5t-84 -61.5l-185 135q66 68 164.5 114t239.5 46q88 0 169 -29t146 -94q119 123 310 123q102 0 187 -32t145.5 -91t94 -146.5t33.5 -199.5v-35t-2 -51h-647 q4 -82 63.5 -138.5t153.5 -56.5q133 0 223 115l189 -125q-78 -98 -182.5 -150.5t-259.5 -52.5q-88 0 -174.5 35t-151.5 100q-59 -61 -143 -98t-183 -37q-207 0 -307 82t-100 217zM340 276q0 -41 38 -72.5t107 -31.5q88 0 150.5 51t62.5 152h-211q-74 0 -110.5 -25.5 t-36.5 -73.5zM948 555h359q0 31 -12.5 61.5t-35 55t-54 40t-72.5 15.5q-78 0 -128.5 -49t-56.5 -123z" />
<glyph unicode="&#xe7;" horiz-adv-x="899" d="M76 442q0 90 31.5 177.5t93 155t155 109.5t215.5 42q61 0 129 -12.5t115 -34.5v-263q-31 23 -89 40.5t-112 17.5q-98 0 -167.5 -59.5t-69.5 -163.5q0 -47 16.5 -90.5t47 -75t74.5 -50t99 -18.5q59 0 112.5 18.5t88.5 49.5v-265q-41 -16 -112.5 -32.5t-151.5 -16.5 q-115 0 -203 38t-148.5 102.5t-92 149.5t-31.5 181zM248 -358l217 282l227 -104l-280 -305z" />
<glyph unicode="&#xe8;" horiz-adv-x="1081" d="M76 442q0 104 33.5 193.5t96 155t148.5 102.5t191 37q102 0 187 -32t145.5 -91t94.5 -146.5t34 -199.5v-33.5t-2 -48.5h-648q4 -86 63.5 -142.5t153.5 -56.5q135 0 224 119l188 -125q-78 -102 -182.5 -154.5t-259.5 -52.5q-90 0 -175 30t-149.5 88t-103.5 147.5 t-39 209.5zM221 1282l227 170l291 -336l-168 -112zM358 551h359q0 33 -12.5 63.5t-35 55t-54 40t-72.5 15.5q-78 0 -127 -49t-58 -125z" />
<glyph unicode="&#xe9;" horiz-adv-x="1081" d="M76 442q0 104 33.5 193.5t96 155t148.5 102.5t191 37q102 0 187 -32t145.5 -91t94.5 -146.5t34 -199.5v-33.5t-2 -48.5h-648q4 -86 63.5 -142.5t153.5 -56.5q135 0 224 119l188 -125q-78 -102 -182.5 -154.5t-259.5 -52.5q-90 0 -175 30t-149.5 88t-103.5 147.5 t-39 209.5zM356 1116l289 336l229 -170l-352 -278zM358 551h359q0 33 -12.5 63.5t-35 55t-54 40t-72.5 15.5q-78 0 -127 -49t-58 -125z" />
<glyph unicode="&#xea;" horiz-adv-x="1081" d="M76 442q0 104 33.5 193.5t96 155t148.5 102.5t191 37q102 0 187 -32t145.5 -91t94.5 -146.5t34 -199.5v-33.5t-2 -48.5h-648q4 -86 63.5 -142.5t153.5 -56.5q135 0 224 119l188 -125q-78 -102 -182.5 -154.5t-259.5 -52.5q-90 0 -175 30t-149.5 88t-103.5 147.5 t-39 209.5zM158 1188l399 278l373 -274l-127 -170l-258 174l-250 -176zM358 551h359q0 33 -12.5 63.5t-35 55t-54 40t-72.5 15.5q-78 0 -127 -49t-58 -125z" />
<glyph unicode="&#xeb;" horiz-adv-x="1081" d="M76 442q0 104 33.5 193.5t96 155t148.5 102.5t191 37q102 0 187 -32t145.5 -91t94.5 -146.5t34 -199.5v-33.5t-2 -48.5h-648q4 -86 63.5 -142.5t153.5 -56.5q135 0 224 119l188 -125q-78 -102 -182.5 -154.5t-259.5 -52.5q-90 0 -175 30t-149.5 88t-103.5 147.5 t-39 209.5zM174 1235q0 68 48 116t116 48t116 -48t48 -116t-48 -116t-116 -48t-116 48t-48 116zM358 551h359q0 33 -12.5 63.5t-35 55t-54 40t-72.5 15.5q-78 0 -127 -49t-58 -125zM628 1235q0 68 48.5 116t115.5 48q68 0 116 -48t48 -116t-48 -116t-116 -48t-116 48 t-48 116z" />
<glyph unicode="&#xec;" horiz-adv-x="536" d="M-43 1282l227 170l291 -336l-168 -112zM123 0v897h291v-897h-291z" />
<glyph unicode="&#xed;" horiz-adv-x="536" d="M86 1116l289 336l229 -170l-352 -278zM123 0v897h291v-897h-291z" />
<glyph unicode="&#xee;" horiz-adv-x="536" d="M-117 1188l399 278l373 -274l-127 -170l-258 174l-250 -176zM123 0v897h291v-897h-291z" />
<glyph unicode="&#xef;" horiz-adv-x="536" d="M-115 1235q0 68 48 116t116 48t116 -48t48 -116t-48 -116t-116 -48t-116 48t-48 116zM123 0v897h291v-897h-291zM339 1235q0 68 48.5 116t115.5 48q68 0 116 -48t48 -116t-48 -116t-116 -48t-116 48t-48 116z" />
<glyph unicode="&#xf0;" d="M53 453q0 92 33 178t92.5 150.5t145.5 103.5t190 39q102 0 170 -26t117 -73q-23 100 -74 176t-109 129l-190 -116l-113 186l97 57q-47 23 -99.5 36.5t-111.5 21.5l37 241q115 -16 221 -51t211 -92l170 103l112 -187l-90 -53q135 -131 205 -296t70 -370q0 -143 -41 -260 t-117 -199.5t-180.5 -129t-229.5 -46.5q-115 0 -209 33t-162.5 95.5t-106.5 150.5t-38 199zM360 455q0 -100 63 -164t155 -64q94 0 155.5 63.5t61.5 164.5q0 100 -60.5 161.5t-159.5 61.5q-47 0 -86.5 -17.5t-68.5 -48t-44.5 -71.5t-15.5 -86z" />
<glyph unicode="&#xf1;" horiz-adv-x="1122" d="M117 0v897h291v-119q16 23 40.5 47.5t59.5 45t82 34t108 13.5q86 0 143.5 -27t92.5 -62q43 -43 61.5 -103t18.5 -159v-567h-291v496q0 31 -6 62.5t-21.5 56t-42 41t-67.5 16.5q-23 0 -52.5 -8.5t-58.5 -30t-48 -60t-19 -102.5v-471h-291zM141 1067q0 61 18.5 115.5 t52 94.5t80 62.5t101.5 22.5t96 -14.5t76 -33t68.5 -32.5t74.5 -14q35 0 56.5 23.5t21.5 60.5h209q0 -68 -20.5 -123t-56.5 -93t-85 -59.5t-104 -21.5q-49 0 -90 15t-79 33.5t-74 34t-73 15.5q-29 0 -49 -27.5t-20 -58.5h-203z" />
<glyph unicode="&#xf2;" horiz-adv-x="1171" d="M76 451q0 100 37 187t103.5 151.5t160.5 102.5t209 38q111 0 204 -36t161.5 -100.5t106.5 -152.5t38 -192q0 -92 -35 -178.5t-101.5 -154t-165 -108.5t-223.5 -41q-104 0 -194 36t-157.5 100.5t-105.5 152.5t-38 195zM244 1282l227 170l291 -336l-168 -112zM369 444 q0 -49 18.5 -90t48 -71.5t68.5 -47t82 -16.5q49 0 88 18.5t67.5 50t44 73.5t15.5 88q0 98 -62.5 162.5t-154.5 64.5q-49 0 -89 -18.5t-68 -51.5t-43 -75t-15 -87z" />
<glyph unicode="&#xf3;" horiz-adv-x="1171" d="M76 451q0 100 37 187t103.5 151.5t160.5 102.5t209 38q111 0 204 -36t161.5 -100.5t106.5 -152.5t38 -192q0 -92 -35 -178.5t-101.5 -154t-165 -108.5t-223.5 -41q-104 0 -194 36t-157.5 100.5t-105.5 152.5t-38 195zM369 444q0 -49 18.5 -90t48 -71.5t68.5 -47t82 -16.5 q49 0 88 18.5t67.5 50t44 73.5t15.5 88q0 98 -62.5 162.5t-154.5 64.5q-49 0 -89 -18.5t-68 -51.5t-43 -75t-15 -87zM408 1116l289 336l229 -170l-352 -278z" />
<glyph unicode="&#xf4;" horiz-adv-x="1171" d="M76 451q0 100 37 187t103.5 151.5t160.5 102.5t209 38q111 0 204 -36t161.5 -100.5t106.5 -152.5t38 -192q0 -92 -35 -178.5t-101.5 -154t-165 -108.5t-223.5 -41q-104 0 -194 36t-157.5 100.5t-105.5 152.5t-38 195zM201 1188l399 278l373 -274l-127 -170l-258 174 l-250 -176zM369 444q0 -49 18.5 -90t48 -71.5t68.5 -47t82 -16.5q49 0 88 18.5t67.5 50t44 73.5t15.5 88q0 98 -62.5 162.5t-154.5 64.5q-49 0 -89 -18.5t-68 -51.5t-43 -75t-15 -87z" />
<glyph unicode="&#xf5;" horiz-adv-x="1171" d="M76 451q0 100 37 187t103.5 151.5t160.5 102.5t209 38q111 0 204 -36t161.5 -100.5t106.5 -152.5t38 -192q0 -92 -35 -178.5t-101.5 -154t-165 -108.5t-223.5 -41q-104 0 -194 36t-157.5 100.5t-105.5 152.5t-38 195zM162 1067q0 61 18.5 115.5t52 94.5t80 62.5 t101.5 22.5t96 -14.5t76 -33t68.5 -32.5t74.5 -14q35 0 56.5 23.5t21.5 60.5h209q0 -68 -20.5 -123t-56.5 -93t-85 -59.5t-104 -21.5q-49 0 -90 15t-79 33.5t-74 34t-73 15.5q-29 0 -49 -27.5t-20 -58.5h-203zM369 444q0 -49 18.5 -90t48 -71.5t68.5 -47t82 -16.5 q49 0 88 18.5t67.5 50t44 73.5t15.5 88q0 98 -62.5 162.5t-154.5 64.5q-49 0 -89 -18.5t-68 -51.5t-43 -75t-15 -87z" />
<glyph unicode="&#xf6;" horiz-adv-x="1171" d="M76 451q0 100 37 187t103.5 151.5t160.5 102.5t209 38q111 0 204 -36t161.5 -100.5t106.5 -152.5t38 -192q0 -92 -35 -178.5t-101.5 -154t-165 -108.5t-223.5 -41q-104 0 -194 36t-157.5 100.5t-105.5 152.5t-38 195zM197 1235q0 68 48 116t116 48t116 -48t48 -116 t-48 -116t-116 -48t-116 48t-48 116zM369 444q0 -49 18.5 -90t48 -71.5t68.5 -47t82 -16.5q49 0 88 18.5t67.5 50t44 73.5t15.5 88q0 98 -62.5 162.5t-154.5 64.5q-49 0 -89 -18.5t-68 -51.5t-43 -75t-15 -87zM651 1235q0 68 48.5 116t115.5 48q68 0 116 -48t48 -116 t-48 -116t-116 -48t-116 48t-48 116z" />
<glyph unicode="&#xf7;" horiz-adv-x="1372" d="M0 467v262h1372v-262h-1372zM520 186q0 70 48 118t118 48t118 -48t48 -118t-48 -118t-118 -48t-118 48.5t-48 117.5zM520 1008q0 70 48 118t118 48t118 -48.5t48 -117.5q0 -70 -48 -118t-118 -48t-118 48t-48 118z" />
<glyph unicode="&#xf8;" horiz-adv-x="1179" d="M82 451q0 100 37 187t103.5 151.5t160.5 102.5t209 38q92 0 170 -24.5t143 -69.5l101 96l90 -101l-95 -88q47 -59 74 -133.5t27 -160.5q0 -92 -35 -178.5t-101.5 -154t-165 -108.5t-222.5 -41q-86 0 -161 23.5t-138 66.5l-99 -92l-90 101l92 86q-47 59 -73.5 134.5 t-26.5 164.5zM362 444q0 -53 21 -100l328 309q-53 37 -121 37q-53 0 -95 -20.5t-72 -54t-45.5 -77.5t-15.5 -94zM471 242q55 -37 121 -37q51 0 93 19.5t71.5 53t46 77.5t16.5 94q0 51 -20 102z" />
<glyph unicode="&#xf9;" horiz-adv-x="1126" d="M109 428v469h290v-461q0 -47 7.5 -88t26 -70.5t51 -47t83.5 -17.5t83 18.5t48.5 49t22.5 68.5t6 79v469h291v-469q0 -115 -18.5 -196.5t-81.5 -143.5q-66 -66 -160 -93.5t-195 -27.5q-106 0 -198.5 32t-163.5 103q-49 49 -70.5 126t-21.5 200zM232 1282l227 170l291 -336 l-168 -112z" />
<glyph unicode="&#xfa;" horiz-adv-x="1126" d="M109 428v469h290v-461q0 -47 7.5 -88t26 -70.5t51 -47t83.5 -17.5t83 18.5t48.5 49t22.5 68.5t6 79v469h291v-469q0 -115 -18.5 -196.5t-81.5 -143.5q-66 -66 -160 -93.5t-195 -27.5q-106 0 -198.5 32t-163.5 103q-49 49 -70.5 126t-21.5 200zM404 1116l289 336l229 -170 l-352 -278z" />
<glyph unicode="&#xfb;" horiz-adv-x="1126" d="M109 428v469h290v-461q0 -47 7.5 -88t26 -70.5t51 -47t83.5 -17.5t83 18.5t48.5 49t22.5 68.5t6 79v469h291v-469q0 -115 -18.5 -196.5t-81.5 -143.5q-66 -66 -160 -93.5t-195 -27.5q-106 0 -198.5 32t-163.5 103q-49 49 -70.5 126t-21.5 200zM172 1188l399 278l373 -274 l-127 -170l-258 174l-250 -176z" />
<glyph unicode="&#xfc;" horiz-adv-x="1126" d="M109 428v469h290v-461q0 -47 7.5 -88t26 -70.5t51 -47t83.5 -17.5t83 18.5t48.5 49t22.5 68.5t6 79v469h291v-469q0 -115 -18.5 -196.5t-81.5 -143.5q-66 -66 -160 -93.5t-195 -27.5q-106 0 -198.5 32t-163.5 103q-49 49 -70.5 126t-21.5 200zM174 1235q0 68 48 116 t116 48t116 -48t48 -116t-48 -116t-116 -48t-116 48t-48 116zM628 1235q0 68 48.5 116t115.5 48q68 0 116 -48t48 -116t-48 -116t-116 -48t-116 48t-48 116z" />
<glyph unicode="&#xfd;" horiz-adv-x="1116" d="M-2 897h332l166 -401q16 -39 37.5 -94.5t37.5 -108.5q16 43 38 98t38 98l166 408h305l-569 -1309h-311l176 394zM369 1116l289 336l229 -170l-352 -278z" />
<glyph unicode="&#xfe;" horiz-adv-x="1224" d="M123 -412v1946h291v-752q51 68 123.5 104t183.5 36q92 0 170 -37t134 -100.5t87 -149.5t31 -186q0 -86 -30 -171t-86 -153t-140 -109t-193 -41q-98 0 -166.5 32t-113.5 83v-502h-291zM403 434q0 -100 59 -166.5t159 -66.5q53 0 93 20.5t66.5 54t40 76.5t13.5 86t-12.5 85 t-39 75t-67.5 53.5t-99 20.5q-49 0 -89 -19.5t-67.5 -53.5t-42 -77t-14.5 -88z" />
<glyph unicode="&#xff;" horiz-adv-x="1116" d="M-2 897h332l166 -401q16 -39 37.5 -94.5t37.5 -108.5q16 43 38 98t38 98l166 408h305l-569 -1309h-311l176 394zM178 1235q0 68 48 116t116 48t116 -48t48 -116t-48 -116t-116 -48t-116 48t-48 116zM632 1235q0 68 48.5 116t115.5 48q68 0 116 -48t48 -116t-48 -116 t-116 -48t-116 48t-48 116z" />
<glyph unicode="&#x152;" horiz-adv-x="2267" d="M61 723q0 156 60.5 295t164 241.5t244 163t299.5 60.5q74 0 134.5 -10.5t111.5 -29t96.5 -45t90.5 -59.5v113h809v-283h-506v-288h495v-283h-495v-309h506v-289h-809v119q-94 -70 -202 -112t-231 -42q-160 0 -300 58.5t-244.5 160t-164 240.5t-59.5 299zM385 729 q0 -102 36 -187t96.5 -146.5t141 -95.5t170.5 -34q96 0 179.5 36t143.5 98.5t94 146.5t34 180q0 102 -37 186t-98.5 144.5t-143 94.5t-170.5 34q-86 0 -165.5 -32t-142 -91t-100.5 -144t-38 -190z" />
<glyph unicode="&#x153;" horiz-adv-x="1818" d="M82 451q0 100 37 187t103.5 151.5t160.5 102.5t209 38q106 0 194 -35t158 -111q53 68 142.5 107t191.5 39q100 0 185 -32t146.5 -91t95.5 -146.5t34 -199.5v-33.5t-2 -48.5h-647q4 -86 63 -142.5t154 -56.5q135 0 223 119l188 -125q-78 -102 -182 -154.5t-260 -52.5 q-96 0 -185.5 34t-154.5 114q-66 -70 -155 -109t-203 -39q-104 0 -194.5 36t-158 100.5t-105.5 152.5t-38 195zM375 444q0 -49 18.5 -90t48 -71.5t68.5 -47t82 -16.5q49 0 88 18.5t67.5 50t44 73.5t15.5 88q0 98 -62.5 162.5t-154.5 64.5q-49 0 -89 -18.5t-67.5 -51.5 t-43 -75t-15.5 -87zM1092 551h358q0 33 -12.5 63.5t-35 55t-54 40t-72.5 15.5q-78 0 -127 -49t-57 -125z" />
<glyph unicode="&#x178;" horiz-adv-x="1292" d="M6 1452h367l278 -553l283 553h354l-485 -790v-662h-316v649zM250 1686q0 68 48 115.5t116 47.5t116 -48t48 -115q0 -68 -48 -116t-116 -48t-116 48t-48 116zM705 1686q0 68 48 115.5t116 47.5t116 -48t48 -115q0 -68 -48 -116t-116 -48t-116 48t-48 116z" />
<glyph unicode="&#x2c6;" horiz-adv-x="1024" d="M125 1188l399 278l373 -274l-127 -170l-258 174l-250 -176z" />
<glyph unicode="&#x2dc;" horiz-adv-x="1024" d="M84 1067q0 61 18.5 115.5t52 94.5t80 62.5t101.5 22.5t96 -14.5t76 -33t68.5 -32.5t74.5 -14q35 0 56.5 23.5t21.5 60.5h209q0 -68 -20.5 -123t-56.5 -93t-85 -59.5t-104 -21.5q-49 0 -90 15t-79 33.5t-74 34t-73 15.5q-29 0 -49 -27.5t-20 -58.5h-203z" />
<glyph unicode="&#x2000;" horiz-adv-x="953" />
<glyph unicode="&#x2001;" horiz-adv-x="1907" />
<glyph unicode="&#x2002;" horiz-adv-x="953" />
<glyph unicode="&#x2003;" horiz-adv-x="1907" />
<glyph unicode="&#x2004;" horiz-adv-x="635" />
<glyph unicode="&#x2005;" horiz-adv-x="476" />
<glyph unicode="&#x2006;" horiz-adv-x="317" />
<glyph unicode="&#x2007;" horiz-adv-x="317" />
<glyph unicode="&#x2008;" horiz-adv-x="238" />
<glyph unicode="&#x2009;" horiz-adv-x="381" />
<glyph unicode="&#x200a;" horiz-adv-x="105" />
<glyph unicode="&#x2010;" horiz-adv-x="772" d="M82 397v242h606v-242h-606z" />
<glyph unicode="&#x2011;" horiz-adv-x="772" d="M82 397v242h606v-242h-606z" />
<glyph unicode="&#x2012;" horiz-adv-x="772" d="M82 397v242h606v-242h-606z" />
<glyph unicode="&#x2013;" horiz-adv-x="1198" d="M76 397v242h1048v-242h-1048z" />
<glyph unicode="&#x2014;" horiz-adv-x="2048" d="M0 399v236h2048v-236h-2048z" />
<glyph unicode="&#x2018;" horiz-adv-x="514" d="M70 1020q0 137 87 260t230 227l92 -106q-53 -47 -85 -92t-32 -99q0 -37 8.5 -63.5t18.5 -48t18.5 -44t8.5 -50.5q0 -74 -49.5 -124.5t-120.5 -50.5q-74 0 -125 50.5t-51 140.5z" />
<glyph unicode="&#x2019;" horiz-adv-x="557" d="M70 901q53 47 84.5 92t31.5 99q0 37 -8 63.5t-18 48t-18.5 44t-8.5 50.5q0 74 49 124.5t121 50.5q74 0 125 -50.5t51 -140.5q0 -137 -87 -260t-230 -227z" />
<glyph unicode="&#x201a;" horiz-adv-x="514" d="M27 -254q53 47 84.5 92t31.5 99q0 37 -8 63.5t-18.5 48t-18.5 44t-8 50.5q0 74 49 124t121 50q74 0 125 -50t51 -140q0 -137 -87 -260t-230 -227z" />
<glyph unicode="&#x201c;" horiz-adv-x="962" d="M70 1020q0 137 87 260t230 227l92 -106q-53 -47 -85 -92t-32 -99q0 -37 8.5 -63.5t18.5 -48t18.5 -44t8.5 -50.5q0 -74 -49.5 -124.5t-120.5 -50.5q-74 0 -125 50.5t-51 140.5zM526 1020q0 137 87 260t231 227l92 -106q-53 -47 -85 -92t-32 -99q0 -37 8.5 -63.5t18.5 -48 t18 -44t8 -50.5q0 -74 -49 -124.5t-121 -50.5q-74 0 -125 50.5t-51 140.5z" />
<glyph unicode="&#x201d;" horiz-adv-x="962" d="M27 901q53 47 84.5 92t31.5 99q0 37 -8 63.5t-18.5 48t-18.5 44t-8 50.5q0 74 49 124.5t121 50.5q74 0 125 -50.5t51 -140.5q0 -137 -87 -260t-230 -227zM483 901q53 47 85 92t32 99q0 37 -8 63.5t-18.5 48t-18.5 44t-8 50.5q0 74 49 124.5t121 50.5q74 0 125 -50.5 t51 -140.5q0 -137 -87 -260t-231 -227z" />
<glyph unicode="&#x201e;" horiz-adv-x="962" d="M27 -254q53 47 84.5 92t31.5 99q0 37 -8 63.5t-18.5 48t-18.5 44t-8 50.5q0 74 49 124t121 50q74 0 125 -50t51 -140q0 -137 -87 -260t-230 -227zM483 -254q53 47 85 92t32 99q0 37 -8 63.5t-18.5 48t-18.5 44t-8 50.5q0 74 49 124t121 50q74 0 125 -50t51 -140 q0 -137 -87 -260t-231 -227z" />
<glyph unicode="&#x2022;" horiz-adv-x="684" d="M25 725q0 66 25.5 124t68.5 101t101.5 68.5t123.5 25.5q66 0 124 -25.5t101 -68.5t69 -101t26 -124t-26 -124t-69 -101t-101 -68.5t-124 -25.5t-124 25.5t-101 68.5t-68.5 101t-25.5 124z" />
<glyph unicode="&#x2026;" horiz-adv-x="1675" d="M102 147q0 72 50.5 122t121.5 50q72 0 122 -50t50 -122t-50 -122t-122 -50t-122 50.5t-50 121.5zM666 147q0 72 50 122t122 50t122 -50t50 -122t-50 -122t-122 -50t-122 50.5t-50 121.5zM1229 147q0 72 50 122t122 50t122 -50t50 -122t-50 -122t-122 -50t-122 50.5 t-50 121.5z" />
<glyph unicode="&#x202f;" horiz-adv-x="381" />
<glyph unicode="&#x2039;" horiz-adv-x="628" d="M53 457l326 473l178 -115l-238 -348l242 -320l-196 -112z" />
<glyph unicode="&#x203a;" horiz-adv-x="628" d="M68 825l196 113l311 -422l-325 -473l-178 115l237 348z" />
<glyph unicode="&#x205f;" horiz-adv-x="476" />
<glyph unicode="&#x20ac;" d="M68 455v196h155q-2 16 -2 33.5v36.5v35.5t2 36.5h-155v194h182q57 242 211.5 370t372.5 128q72 0 146.5 -12.5t133.5 -32.5v-283q-57 29 -123.5 44.5t-130.5 15.5q-96 0 -169 -53.5t-109 -176.5h336v-194h-367q-2 -16 -2 -35v-37v-35.5t2 -34.5h367v-196h-332 q41 -113 114.5 -163t165.5 -50q66 0 131.5 15t122.5 44v-281q-66 -25 -141.5 -38t-163.5 -13q-219 0 -366.5 124t-200.5 362h-180z" />
<glyph unicode="&#x2122;" horiz-adv-x="1800" d="M31 1231v221h581v-221h-157v-498h-258v498h-166zM637 733l74 719h372l109 -414l106 414h381l88 -719h-286l-33 471l-133 -471h-293l-125 469l-25 -469h-235z" />
<glyph unicode="&#x25fc;" horiz-adv-x="901" d="M0 0v901h901v-901h-901z" />
</font>
</defs>
</svg>
